<?xml version="1.0" encoding="UTF-8" standalone="no"?>
<!DOCTYPE svg PUBLIC "-//W3C//DTD SVG 1.1//EN"
 "http://www.w3.org/Graphics/SVG/1.1/DTD/svg11.dtd">
<!-- Generated by graphviz version 2.43.20190912.0211 (20190912.0211)
 -->
<!-- Title: egraph Pages: 1 -->
<svg width="216pt" height="148pt"
 viewBox="0.00 0.00 216.00 148.00" xmlns="http://www.w3.org/2000/svg" xmlns:xlink="http://www.w3.org/1999/xlink">
<g id="graph0" class="graph" transform="scale(1 1) rotate(0) translate(4 144)">
<title>egraph</title>
<polygon fill="white" stroke="transparent" points="-4,4 -4,-144 212,-144 212,4 -4,4"/>
<g id="clust1" class="cluster">
<title>cluster_13423</title>
<path fill="none" stroke="black" stroke-dasharray="1,5" d="M82,-80C82,-80 150,-80 150,-80 156,-80 162,-86 162,-92 162,-92 162,-120 162,-120 162,-126 156,-132 150,-132 150,-132 82,-132 82,-132 76,-132 70,-126 70,-120 70,-120 70,-92 70,-92 70,-86 76,-80 82,-80"/>
</g>
<g id="clust2" class="cluster">
<title>cluster_13405</title>
<path fill="none" stroke="black" stroke-dasharray="1,5" d="M20,-8C20,-8 88,-8 88,-8 94,-8 100,-14 100,-20 100,-20 100,-48 100,-48 100,-54 94,-60 88,-60 88,-60 20,-60 20,-60 14,-60 8,-54 8,-48 8,-48 8,-20 8,-20 8,-14 14,-8 20,-8"/>
</g>
<g id="clust3" class="cluster">
<title>cluster_13419</title>
<path fill="none" stroke="black" stroke-dasharray="1,5" d="M120,-8C120,-8 188,-8 188,-8 194,-8 200,-14 200,-20 200,-20 200,-48 200,-48 200,-54 194,-60 188,-60 188,-60 120,-60 120,-60 114,-60 108,-54 108,-48 108,-48 108,-20 108,-20 108,-14 114,-8 120,-8"/>
</g>
<!-- 13423_+_13405_13419 -->
<g id="node1" class="node">
<title>13423_+_13405_13419</title>
<path fill="none" stroke="black" d="M142,-124C142,-124 112,-124 112,-124 106,-124 100,-118 100,-112 100,-112 100,-100 100,-100 100,-94 106,-88 112,-88 112,-88 142,-88 142,-88 148,-88 154,-94 154,-100 154,-100 154,-112 154,-112 154,-118 148,-124 142,-124"/>
<text text-anchor="middle" x="127" y="-102.3" font-family="Times,serif" font-size="14.00">+</text>
</g>
<!-- e_rep_13405 -->
<!-- 13423_+_13405_13419&#45;&gt;e_rep_13405 -->
<g id="edge1" class="edge">
<title>13423_+_13405_13419&#45;&gt;e_rep_13405</title>
<path fill="none" stroke="black" d="M117.85,-87.7C110.72,-74.19 101.06,-55.92 95.19,-44.83"/>
<polygon fill="black" stroke="black" points="98.19,-43.01 90.43,-35.81 92.01,-46.28 98.19,-43.01"/>
</g>
<!-- e_rep_13419 -->
<!-- 13423_+_13405_13419&#45;&gt;e_rep_13419 -->
<g id="edge2" class="edge">
<title>13423_+_13405_13419&#45;&gt;e_rep_13419</title>
<path fill="none" stroke="black" d="M151.1,-87.88C160.7,-80.18 171.27,-70.47 179,-60 182.14,-55.75 184.63,-50.47 186.44,-45.85"/>
<polygon fill="black" stroke="black" points="189.87,-46.63 189.72,-36.04 183.23,-44.41 189.87,-46.63"/>
</g>
<!-- e_rep_13423 -->
<!-- 13405_x_ -->
<g id="node5" class="node">
<title>13405_x_</title>
<path fill="none" stroke="black" d="M58,-52C58,-52 28,-52 28,-52 22,-52 16,-46 16,-40 16,-40 16,-28 16,-28 16,-22 22,-16 28,-16 28,-16 58,-16 58,-16 64,-16 70,-22 70,-28 70,-28 70,-40 70,-40 70,-46 64,-52 58,-52"/>
<text text-anchor="middle" x="43" y="-30.3" font-family="Times,serif" font-size="14.00">x</text>
</g>
<!-- 13419_y_ -->
<g id="node6" class="node">
<title>13419_y_</title>
<path fill="none" stroke="black" d="M158,-52C158,-52 128,-52 128,-52 122,-52 116,-46 116,-40 116,-40 116,-28 116,-28 116,-22 122,-16 128,-16 128,-16 158,-16 158,-16 164,-16 170,-22 170,-28 170,-28 170,-40 170,-40 170,-46 164,-52 158,-52"/>
<text text-anchor="middle" x="143" y="-30.3" font-family="Times,serif" font-size="14.00">y</text>
</g>
</g>
</svg>
