<?xml version="1.0" encoding="UTF-8" standalone="no"?>
<!DOCTYPE svg PUBLIC "-//W3C//DTD SVG 1.1//EN"
 "http://www.w3.org/Graphics/SVG/1.1/DTD/svg11.dtd">
<!-- Generated by graphviz version 2.40.1 (20161225.0304)
 -->
<!-- Title: %3 Pages: 1 -->
<svg width="189pt" height="1114pt"
 viewBox="0.00 0.00 189.50 1113.60" xmlns="http://www.w3.org/2000/svg" xmlns:xlink="http://www.w3.org/1999/xlink">
<g id="graph0" class="graph" transform="scale(1 1) rotate(0) translate(4 1109.6)">
<title>%3</title>
<polygon fill="#ffffff" stroke="transparent" points="-4,4 -4,-1109.6 185.4951,-1109.6 185.4951,4 -4,4"/>
<!-- 351943416 -->
<g id="node1" class="node">
<title>351943416</title>
<ellipse fill="none" stroke="#000000" cx="27" cy="-1087.6" rx="27" ry="18"/>
<text text-anchor="middle" x="27" y="-1083.4" font-family="Times,serif" font-size="14.00" fill="#000000">0.5</text>
</g>
<!-- 698088732 -->
<g id="node4" class="node">
<title>698088732</title>
<polygon fill="none" stroke="#000000" points="21.5049,-967.1 21.5049,-1033.1 172.4951,-1033.1 172.4951,-967.1 21.5049,-967.1"/>
<text text-anchor="middle" x="46.6118" y="-1017.9" font-family="Times,serif" font-size="14.00" fill="#000000">x(t)</text>
<polyline fill="none" stroke="#000000" points="71.7188,-1011.1 71.7188,-1033.1 "/>
<text text-anchor="middle" x="97.3257" y="-1017.9" font-family="Times,serif" font-size="14.00" fill="#000000">v(t)</text>
<polyline fill="none" stroke="#000000" points="122.9326,-1011.1 122.9326,-1033.1 "/>
<text text-anchor="middle" x="147.3706" y="-1017.9" font-family="Times,serif" font-size="14.00" fill="#000000">f(t)</text>
<polyline fill="none" stroke="#000000" points="21.5049,-1011.1 172.4951,-1011.1 "/>
<text text-anchor="middle" x="97" y="-995.9" font-family="Times,serif" font-size="14.00" fill="#000000">pend_step</text>
<polyline fill="none" stroke="#000000" points="21.5049,-989.1 172.4951,-989.1 "/>
<text text-anchor="middle" x="47.0596" y="-973.9" font-family="Times,serif" font-size="14.00" fill="#000000">x(t+1)</text>
<polyline fill="none" stroke="#000000" points="72.6143,-967.1 72.6143,-989.1 "/>
<text text-anchor="middle" x="98.1689" y="-973.9" font-family="Times,serif" font-size="14.00" fill="#000000">v(t+1)</text>
<polyline fill="none" stroke="#000000" points="123.7236,-967.1 123.7236,-989.1 "/>
<text text-anchor="middle" x="148.1094" y="-973.9" font-family="Times,serif" font-size="14.00" fill="#000000">f(t+1)</text>
</g>
<!-- 351943416&#45;&gt;698088732 -->
<g id="edge31" class="edge">
<title>351943416&#45;&gt;698088732:x(t)</title>
<path fill="none" stroke="#000000" d="M36.7656,-1070.5108C40.5336,-1062.7483 44.346,-1053.1182 46.0614,-1043.312"/>
<polygon fill="#000000" stroke="#000000" points="49.5699,-1043.3784 47,-1033.1 42.5993,-1042.7376 49.5699,-1043.3784"/>
</g>
<!-- 146090564 -->
<g id="node2" class="node">
<title>146090564</title>
<ellipse fill="none" stroke="#000000" cx="99" cy="-1087.6" rx="27" ry="18"/>
<text text-anchor="middle" x="99" y="-1083.4" font-family="Times,serif" font-size="14.00" fill="#000000">0</text>
</g>
<!-- 146090564&#45;&gt;698088732 -->
<g id="edge32" class="edge">
<title>146090564&#45;&gt;698088732:v(t)</title>
<path fill="none" stroke="#000000" d="M98,-1069.4394C97.6367,-1061.7414 97.2734,-1052.4439 97.1019,-1043.2866"/>
<polygon fill="#000000" stroke="#000000" points="100.6,-1043.0644 97,-1033.1 93.6003,-1043.1346 100.6,-1043.0644"/>
</g>
<!-- 243858446 -->
<g id="node3" class="node">
<title>243858446</title>
<ellipse fill="#000000" stroke="#000000" cx="147" cy="-1087.6" rx="1.8" ry="1.8"/>
</g>
<!-- 243858446&#45;&gt;698088732 -->
<g id="edge33" class="edge">
<title>243858446&#45;&gt;698088732:f(t)</title>
<path fill="none" stroke="#000000" d="M147,-1085.521C147,-1079.473 147,-1061.1867 147,-1043.4108"/>
<polygon fill="#000000" stroke="#000000" points="150.5001,-1043.1 147,-1033.1 143.5001,-1043.1 150.5001,-1043.1"/>
</g>
<!-- 89041436 -->
<g id="node5" class="node">
<title>89041436</title>
<polygon fill="none" stroke="#000000" points="22.5049,-864.1 22.5049,-930.1 173.4951,-930.1 173.4951,-864.1 22.5049,-864.1"/>
<text text-anchor="middle" x="47.6118" y="-914.9" font-family="Times,serif" font-size="14.00" fill="#000000">x(t)</text>
<polyline fill="none" stroke="#000000" points="72.7188,-908.1 72.7188,-930.1 "/>
<text text-anchor="middle" x="98.3257" y="-914.9" font-family="Times,serif" font-size="14.00" fill="#000000">v(t)</text>
<polyline fill="none" stroke="#000000" points="123.9326,-908.1 123.9326,-930.1 "/>
<text text-anchor="middle" x="148.3706" y="-914.9" font-family="Times,serif" font-size="14.00" fill="#000000">f(t)</text>
<polyline fill="none" stroke="#000000" points="22.5049,-908.1 173.4951,-908.1 "/>
<text text-anchor="middle" x="98" y="-892.9" font-family="Times,serif" font-size="14.00" fill="#000000">pend_step</text>
<polyline fill="none" stroke="#000000" points="22.5049,-886.1 173.4951,-886.1 "/>
<text text-anchor="middle" x="48.0596" y="-870.9" font-family="Times,serif" font-size="14.00" fill="#000000">x(t+1)</text>
<polyline fill="none" stroke="#000000" points="73.6143,-864.1 73.6143,-886.1 "/>
<text text-anchor="middle" x="99.1689" y="-870.9" font-family="Times,serif" font-size="14.00" fill="#000000">v(t+1)</text>
<polyline fill="none" stroke="#000000" points="124.7236,-864.1 124.7236,-886.1 "/>
<text text-anchor="middle" x="149.1094" y="-870.9" font-family="Times,serif" font-size="14.00" fill="#000000">f(t+1)</text>
</g>
<!-- 698088732&#45;&gt;89041436 -->
<g id="edge28" class="edge">
<title>698088732:x(t+1)&#45;&gt;89041436:x(t)</title>
<path fill="none" stroke="#000000" d="M47,-967.1C47,-954.6336 47.5743,-949.2604 47.8524,-940.2298"/>
<polygon fill="#000000" stroke="#000000" points="51.3539,-940.1499 48,-930.1 44.3546,-940.0479 51.3539,-940.1499"/>
</g>
<!-- 698088732&#45;&gt;89041436 -->
<g id="edge29" class="edge">
<title>698088732:v(t+1)&#45;&gt;89041436:v(t)</title>
<path fill="none" stroke="#000000" d="M98,-967.1C98,-954.6382 98,-949.2592 98,-940.2281"/>
<polygon fill="#000000" stroke="#000000" points="101.5001,-940.1 98,-930.1 94.5001,-940.1 101.5001,-940.1"/>
</g>
<!-- 698088732&#45;&gt;89041436 -->
<g id="edge30" class="edge">
<title>698088732:f(t+1)&#45;&gt;89041436:f(t)</title>
<path fill="none" stroke="#000000" d="M148,-967.1C148,-954.6382 148,-949.2592 148,-940.2281"/>
<polygon fill="#000000" stroke="#000000" points="151.5001,-940.1 148,-930.1 144.5001,-940.1 151.5001,-940.1"/>
</g>
<!-- 471842613 -->
<g id="node6" class="node">
<title>471842613</title>
<polygon fill="none" stroke="#000000" points="23.5049,-761.1 23.5049,-827.1 174.4951,-827.1 174.4951,-761.1 23.5049,-761.1"/>
<text text-anchor="middle" x="48.6118" y="-811.9" font-family="Times,serif" font-size="14.00" fill="#000000">x(t)</text>
<polyline fill="none" stroke="#000000" points="73.7188,-805.1 73.7188,-827.1 "/>
<text text-anchor="middle" x="99.3257" y="-811.9" font-family="Times,serif" font-size="14.00" fill="#000000">v(t)</text>
<polyline fill="none" stroke="#000000" points="124.9326,-805.1 124.9326,-827.1 "/>
<text text-anchor="middle" x="149.3706" y="-811.9" font-family="Times,serif" font-size="14.00" fill="#000000">f(t)</text>
<polyline fill="none" stroke="#000000" points="23.5049,-805.1 174.4951,-805.1 "/>
<text text-anchor="middle" x="99" y="-789.9" font-family="Times,serif" font-size="14.00" fill="#000000">pend_step</text>
<polyline fill="none" stroke="#000000" points="23.5049,-783.1 174.4951,-783.1 "/>
<text text-anchor="middle" x="49.0596" y="-767.9" font-family="Times,serif" font-size="14.00" fill="#000000">x(t+1)</text>
<polyline fill="none" stroke="#000000" points="74.6143,-761.1 74.6143,-783.1 "/>
<text text-anchor="middle" x="100.1689" y="-767.9" font-family="Times,serif" font-size="14.00" fill="#000000">v(t+1)</text>
<polyline fill="none" stroke="#000000" points="125.7236,-761.1 125.7236,-783.1 "/>
<text text-anchor="middle" x="150.1094" y="-767.9" font-family="Times,serif" font-size="14.00" fill="#000000">f(t+1)</text>
</g>
<!-- 89041436&#45;&gt;471842613 -->
<g id="edge25" class="edge">
<title>89041436:x(t+1)&#45;&gt;471842613:x(t)</title>
<path fill="none" stroke="#000000" d="M48,-864.1C48,-851.6336 48.5743,-846.2604 48.8524,-837.2298"/>
<polygon fill="#000000" stroke="#000000" points="52.3539,-837.1499 49,-827.1 45.3546,-837.0479 52.3539,-837.1499"/>
</g>
<!-- 89041436&#45;&gt;471842613 -->
<g id="edge26" class="edge">
<title>89041436:v(t+1)&#45;&gt;471842613:v(t)</title>
<path fill="none" stroke="#000000" d="M99,-864.1C99,-851.6382 99,-846.2592 99,-837.2281"/>
<polygon fill="#000000" stroke="#000000" points="102.5001,-837.1 99,-827.1 95.5001,-837.1 102.5001,-837.1"/>
</g>
<!-- 89041436&#45;&gt;471842613 -->
<g id="edge27" class="edge">
<title>89041436:f(t+1)&#45;&gt;471842613:f(t)</title>
<path fill="none" stroke="#000000" d="M149,-864.1C149,-851.6382 149,-846.2592 149,-837.2281"/>
<polygon fill="#000000" stroke="#000000" points="152.5001,-837.1 149,-827.1 145.5001,-837.1 152.5001,-837.1"/>
</g>
<!-- 521605135 -->
<g id="node7" class="node">
<title>521605135</title>
<polygon fill="none" stroke="#000000" points="24.5049,-658.1 24.5049,-724.1 175.4951,-724.1 175.4951,-658.1 24.5049,-658.1"/>
<text text-anchor="middle" x="49.6118" y="-708.9" font-family="Times,serif" font-size="14.00" fill="#000000">x(t)</text>
<polyline fill="none" stroke="#000000" points="74.7188,-702.1 74.7188,-724.1 "/>
<text text-anchor="middle" x="100.3257" y="-708.9" font-family="Times,serif" font-size="14.00" fill="#000000">v(t)</text>
<polyline fill="none" stroke="#000000" points="125.9326,-702.1 125.9326,-724.1 "/>
<text text-anchor="middle" x="150.3706" y="-708.9" font-family="Times,serif" font-size="14.00" fill="#000000">f(t)</text>
<polyline fill="none" stroke="#000000" points="24.5049,-702.1 175.4951,-702.1 "/>
<text text-anchor="middle" x="100" y="-686.9" font-family="Times,serif" font-size="14.00" fill="#000000">pend_step</text>
<polyline fill="none" stroke="#000000" points="24.5049,-680.1 175.4951,-680.1 "/>
<text text-anchor="middle" x="50.0596" y="-664.9" font-family="Times,serif" font-size="14.00" fill="#000000">x(t+1)</text>
<polyline fill="none" stroke="#000000" points="75.6143,-658.1 75.6143,-680.1 "/>
<text text-anchor="middle" x="101.1689" y="-664.9" font-family="Times,serif" font-size="14.00" fill="#000000">v(t+1)</text>
<polyline fill="none" stroke="#000000" points="126.7236,-658.1 126.7236,-680.1 "/>
<text text-anchor="middle" x="151.1094" y="-664.9" font-family="Times,serif" font-size="14.00" fill="#000000">f(t+1)</text>
</g>
<!-- 471842613&#45;&gt;521605135 -->
<g id="edge22" class="edge">
<title>471842613:x(t+1)&#45;&gt;521605135:x(t)</title>
<path fill="none" stroke="#000000" d="M49,-761.1C49,-748.6336 49.5743,-743.2604 49.8524,-734.2298"/>
<polygon fill="#000000" stroke="#000000" points="53.3539,-734.1499 50,-724.1 46.3546,-734.0479 53.3539,-734.1499"/>
</g>
<!-- 471842613&#45;&gt;521605135 -->
<g id="edge23" class="edge">
<title>471842613:v(t+1)&#45;&gt;521605135:v(t)</title>
<path fill="none" stroke="#000000" d="M100,-761.1C100,-748.6382 100,-743.2592 100,-734.2281"/>
<polygon fill="#000000" stroke="#000000" points="103.5001,-734.1 100,-724.1 96.5001,-734.1 103.5001,-734.1"/>
</g>
<!-- 471842613&#45;&gt;521605135 -->
<g id="edge24" class="edge">
<title>471842613:f(t+1)&#45;&gt;521605135:f(t)</title>
<path fill="none" stroke="#000000" d="M150,-761.1C150,-748.6382 150,-743.2592 150,-734.2281"/>
<polygon fill="#000000" stroke="#000000" points="153.5001,-734.1 150,-724.1 146.5001,-734.1 153.5001,-734.1"/>
</g>
<!-- 870027051 -->
<g id="node8" class="node">
<title>870027051</title>
<polygon fill="none" stroke="#000000" points="25.5049,-555.1 25.5049,-621.1 176.4951,-621.1 176.4951,-555.1 25.5049,-555.1"/>
<text text-anchor="middle" x="50.6118" y="-605.9" font-family="Times,serif" font-size="14.00" fill="#000000">x(t)</text>
<polyline fill="none" stroke="#000000" points="75.7188,-599.1 75.7188,-621.1 "/>
<text text-anchor="middle" x="101.3257" y="-605.9" font-family="Times,serif" font-size="14.00" fill="#000000">v(t)</text>
<polyline fill="none" stroke="#000000" points="126.9326,-599.1 126.9326,-621.1 "/>
<text text-anchor="middle" x="151.3706" y="-605.9" font-family="Times,serif" font-size="14.00" fill="#000000">f(t)</text>
<polyline fill="none" stroke="#000000" points="25.5049,-599.1 176.4951,-599.1 "/>
<text text-anchor="middle" x="101" y="-583.9" font-family="Times,serif" font-size="14.00" fill="#000000">pend_step</text>
<polyline fill="none" stroke="#000000" points="25.5049,-577.1 176.4951,-577.1 "/>
<text text-anchor="middle" x="51.0596" y="-561.9" font-family="Times,serif" font-size="14.00" fill="#000000">x(t+1)</text>
<polyline fill="none" stroke="#000000" points="76.6143,-555.1 76.6143,-577.1 "/>
<text text-anchor="middle" x="102.1689" y="-561.9" font-family="Times,serif" font-size="14.00" fill="#000000">v(t+1)</text>
<polyline fill="none" stroke="#000000" points="127.7236,-555.1 127.7236,-577.1 "/>
<text text-anchor="middle" x="152.1094" y="-561.9" font-family="Times,serif" font-size="14.00" fill="#000000">f(t+1)</text>
</g>
<!-- 521605135&#45;&gt;870027051 -->
<g id="edge19" class="edge">
<title>521605135:x(t+1)&#45;&gt;870027051:x(t)</title>
<path fill="none" stroke="#000000" d="M50,-658.1C50,-645.6336 50.5743,-640.2604 50.8524,-631.2298"/>
<polygon fill="#000000" stroke="#000000" points="54.3539,-631.1499 51,-621.1 47.3546,-631.0479 54.3539,-631.1499"/>
</g>
<!-- 521605135&#45;&gt;870027051 -->
<g id="edge20" class="edge">
<title>521605135:v(t+1)&#45;&gt;870027051:v(t)</title>
<path fill="none" stroke="#000000" d="M101,-658.1C101,-645.6382 101,-640.2592 101,-631.2281"/>
<polygon fill="#000000" stroke="#000000" points="104.5001,-631.1 101,-621.1 97.5001,-631.1 104.5001,-631.1"/>
</g>
<!-- 521605135&#45;&gt;870027051 -->
<g id="edge21" class="edge">
<title>521605135:f(t+1)&#45;&gt;870027051:f(t)</title>
<path fill="none" stroke="#000000" d="M151,-658.1C151,-645.6382 151,-640.2592 151,-631.2281"/>
<polygon fill="#000000" stroke="#000000" points="154.5001,-631.1 151,-621.1 147.5001,-631.1 154.5001,-631.1"/>
</g>
<!-- 643921943 -->
<g id="node9" class="node">
<title>643921943</title>
<polygon fill="none" stroke="#000000" points="26.5049,-452.1 26.5049,-518.1 177.4951,-518.1 177.4951,-452.1 26.5049,-452.1"/>
<text text-anchor="middle" x="51.6118" y="-502.9" font-family="Times,serif" font-size="14.00" fill="#000000">x(t)</text>
<polyline fill="none" stroke="#000000" points="76.7188,-496.1 76.7188,-518.1 "/>
<text text-anchor="middle" x="102.3257" y="-502.9" font-family="Times,serif" font-size="14.00" fill="#000000">v(t)</text>
<polyline fill="none" stroke="#000000" points="127.9326,-496.1 127.9326,-518.1 "/>
<text text-anchor="middle" x="152.3706" y="-502.9" font-family="Times,serif" font-size="14.00" fill="#000000">f(t)</text>
<polyline fill="none" stroke="#000000" points="26.5049,-496.1 177.4951,-496.1 "/>
<text text-anchor="middle" x="102" y="-480.9" font-family="Times,serif" font-size="14.00" fill="#000000">pend_step</text>
<polyline fill="none" stroke="#000000" points="26.5049,-474.1 177.4951,-474.1 "/>
<text text-anchor="middle" x="52.0596" y="-458.9" font-family="Times,serif" font-size="14.00" fill="#000000">x(t+1)</text>
<polyline fill="none" stroke="#000000" points="77.6143,-452.1 77.6143,-474.1 "/>
<text text-anchor="middle" x="103.1689" y="-458.9" font-family="Times,serif" font-size="14.00" fill="#000000">v(t+1)</text>
<polyline fill="none" stroke="#000000" points="128.7236,-452.1 128.7236,-474.1 "/>
<text text-anchor="middle" x="153.1094" y="-458.9" font-family="Times,serif" font-size="14.00" fill="#000000">f(t+1)</text>
</g>
<!-- 870027051&#45;&gt;643921943 -->
<g id="edge16" class="edge">
<title>870027051:x(t+1)&#45;&gt;643921943:x(t)</title>
<path fill="none" stroke="#000000" d="M51,-555.1C51,-542.6336 51.5743,-537.2604 51.8524,-528.2298"/>
<polygon fill="#000000" stroke="#000000" points="55.3539,-528.1499 52,-518.1 48.3546,-528.0479 55.3539,-528.1499"/>
</g>
<!-- 870027051&#45;&gt;643921943 -->
<g id="edge17" class="edge">
<title>870027051:v(t+1)&#45;&gt;643921943:v(t)</title>
<path fill="none" stroke="#000000" d="M102,-555.1C102,-542.6382 102,-537.2592 102,-528.2281"/>
<polygon fill="#000000" stroke="#000000" points="105.5001,-528.1 102,-518.1 98.5001,-528.1 105.5001,-528.1"/>
</g>
<!-- 870027051&#45;&gt;643921943 -->
<g id="edge18" class="edge">
<title>870027051:f(t+1)&#45;&gt;643921943:f(t)</title>
<path fill="none" stroke="#000000" d="M152,-555.1C152,-542.6382 152,-537.2592 152,-528.2281"/>
<polygon fill="#000000" stroke="#000000" points="155.5001,-528.1 152,-518.1 148.5001,-528.1 155.5001,-528.1"/>
</g>
<!-- 461519239 -->
<g id="node10" class="node">
<title>461519239</title>
<polygon fill="none" stroke="#000000" points="27.5049,-349.1 27.5049,-415.1 178.4951,-415.1 178.4951,-349.1 27.5049,-349.1"/>
<text text-anchor="middle" x="52.6118" y="-399.9" font-family="Times,serif" font-size="14.00" fill="#000000">x(t)</text>
<polyline fill="none" stroke="#000000" points="77.7188,-393.1 77.7188,-415.1 "/>
<text text-anchor="middle" x="103.3257" y="-399.9" font-family="Times,serif" font-size="14.00" fill="#000000">v(t)</text>
<polyline fill="none" stroke="#000000" points="128.9326,-393.1 128.9326,-415.1 "/>
<text text-anchor="middle" x="153.3706" y="-399.9" font-family="Times,serif" font-size="14.00" fill="#000000">f(t)</text>
<polyline fill="none" stroke="#000000" points="27.5049,-393.1 178.4951,-393.1 "/>
<text text-anchor="middle" x="103" y="-377.9" font-family="Times,serif" font-size="14.00" fill="#000000">pend_step</text>
<polyline fill="none" stroke="#000000" points="27.5049,-371.1 178.4951,-371.1 "/>
<text text-anchor="middle" x="53.0596" y="-355.9" font-family="Times,serif" font-size="14.00" fill="#000000">x(t+1)</text>
<polyline fill="none" stroke="#000000" points="78.6143,-349.1 78.6143,-371.1 "/>
<text text-anchor="middle" x="104.1689" y="-355.9" font-family="Times,serif" font-size="14.00" fill="#000000">v(t+1)</text>
<polyline fill="none" stroke="#000000" points="129.7236,-349.1 129.7236,-371.1 "/>
<text text-anchor="middle" x="154.1094" y="-355.9" font-family="Times,serif" font-size="14.00" fill="#000000">f(t+1)</text>
</g>
<!-- 643921943&#45;&gt;461519239 -->
<g id="edge13" class="edge">
<title>643921943:x(t+1)&#45;&gt;461519239:x(t)</title>
<path fill="none" stroke="#000000" d="M52,-452.1C52,-439.6336 52.5743,-434.2604 52.8524,-425.2298"/>
<polygon fill="#000000" stroke="#000000" points="56.3539,-425.1499 53,-415.1 49.3546,-425.0479 56.3539,-425.1499"/>
</g>
<!-- 643921943&#45;&gt;461519239 -->
<g id="edge14" class="edge">
<title>643921943:v(t+1)&#45;&gt;461519239:v(t)</title>
<path fill="none" stroke="#000000" d="M103,-452.1C103,-439.6382 103,-434.2592 103,-425.2281"/>
<polygon fill="#000000" stroke="#000000" points="106.5001,-425.1 103,-415.1 99.5001,-425.1 106.5001,-425.1"/>
</g>
<!-- 643921943&#45;&gt;461519239 -->
<g id="edge15" class="edge">
<title>643921943:f(t+1)&#45;&gt;461519239:f(t)</title>
<path fill="none" stroke="#000000" d="M153,-452.1C153,-439.6382 153,-434.2592 153,-425.2281"/>
<polygon fill="#000000" stroke="#000000" points="156.5001,-425.1 153,-415.1 149.5001,-425.1 156.5001,-425.1"/>
</g>
<!-- 270422270 -->
<g id="node11" class="node">
<title>270422270</title>
<polygon fill="none" stroke="#000000" points="28.5049,-246.1 28.5049,-312.1 179.4951,-312.1 179.4951,-246.1 28.5049,-246.1"/>
<text text-anchor="middle" x="53.6118" y="-296.9" font-family="Times,serif" font-size="14.00" fill="#000000">x(t)</text>
<polyline fill="none" stroke="#000000" points="78.7188,-290.1 78.7188,-312.1 "/>
<text text-anchor="middle" x="104.3257" y="-296.9" font-family="Times,serif" font-size="14.00" fill="#000000">v(t)</text>
<polyline fill="none" stroke="#000000" points="129.9326,-290.1 129.9326,-312.1 "/>
<text text-anchor="middle" x="154.3706" y="-296.9" font-family="Times,serif" font-size="14.00" fill="#000000">f(t)</text>
<polyline fill="none" stroke="#000000" points="28.5049,-290.1 179.4951,-290.1 "/>
<text text-anchor="middle" x="104" y="-274.9" font-family="Times,serif" font-size="14.00" fill="#000000">pend_step</text>
<polyline fill="none" stroke="#000000" points="28.5049,-268.1 179.4951,-268.1 "/>
<text text-anchor="middle" x="54.0596" y="-252.9" font-family="Times,serif" font-size="14.00" fill="#000000">x(t+1)</text>
<polyline fill="none" stroke="#000000" points="79.6143,-246.1 79.6143,-268.1 "/>
<text text-anchor="middle" x="105.1689" y="-252.9" font-family="Times,serif" font-size="14.00" fill="#000000">v(t+1)</text>
<polyline fill="none" stroke="#000000" points="130.7236,-246.1 130.7236,-268.1 "/>
<text text-anchor="middle" x="155.1094" y="-252.9" font-family="Times,serif" font-size="14.00" fill="#000000">f(t+1)</text>
</g>
<!-- 461519239&#45;&gt;270422270 -->
<g id="edge10" class="edge">
<title>461519239:x(t+1)&#45;&gt;270422270:x(t)</title>
<path fill="none" stroke="#000000" d="M53,-349.1C53,-336.6336 53.5743,-331.2604 53.8524,-322.2298"/>
<polygon fill="#000000" stroke="#000000" points="57.3539,-322.1499 54,-312.1 50.3546,-322.0479 57.3539,-322.1499"/>
</g>
<!-- 461519239&#45;&gt;270422270 -->
<g id="edge11" class="edge">
<title>461519239:v(t+1)&#45;&gt;270422270:v(t)</title>
<path fill="none" stroke="#000000" d="M104,-349.1C104,-336.6382 104,-331.2592 104,-322.2281"/>
<polygon fill="#000000" stroke="#000000" points="107.5001,-322.1 104,-312.1 100.5001,-322.1 107.5001,-322.1"/>
</g>
<!-- 461519239&#45;&gt;270422270 -->
<g id="edge12" class="edge">
<title>461519239:f(t+1)&#45;&gt;270422270:f(t)</title>
<path fill="none" stroke="#000000" d="M154,-349.1C154,-336.6382 154,-331.2592 154,-322.2281"/>
<polygon fill="#000000" stroke="#000000" points="157.5001,-322.1 154,-312.1 150.5001,-322.1 157.5001,-322.1"/>
</g>
<!-- 829295310 -->
<g id="node12" class="node">
<title>829295310</title>
<polygon fill="none" stroke="#000000" points="29.5049,-143.1 29.5049,-209.1 180.4951,-209.1 180.4951,-143.1 29.5049,-143.1"/>
<text text-anchor="middle" x="54.6118" y="-193.9" font-family="Times,serif" font-size="14.00" fill="#000000">x(t)</text>
<polyline fill="none" stroke="#000000" points="79.7188,-187.1 79.7188,-209.1 "/>
<text text-anchor="middle" x="105.3257" y="-193.9" font-family="Times,serif" font-size="14.00" fill="#000000">v(t)</text>
<polyline fill="none" stroke="#000000" points="130.9326,-187.1 130.9326,-209.1 "/>
<text text-anchor="middle" x="155.3706" y="-193.9" font-family="Times,serif" font-size="14.00" fill="#000000">f(t)</text>
<polyline fill="none" stroke="#000000" points="29.5049,-187.1 180.4951,-187.1 "/>
<text text-anchor="middle" x="105" y="-171.9" font-family="Times,serif" font-size="14.00" fill="#000000">pend_step</text>
<polyline fill="none" stroke="#000000" points="29.5049,-165.1 180.4951,-165.1 "/>
<text text-anchor="middle" x="55.0596" y="-149.9" font-family="Times,serif" font-size="14.00" fill="#000000">x(t+1)</text>
<polyline fill="none" stroke="#000000" points="80.6143,-143.1 80.6143,-165.1 "/>
<text text-anchor="middle" x="106.1689" y="-149.9" font-family="Times,serif" font-size="14.00" fill="#000000">v(t+1)</text>
<polyline fill="none" stroke="#000000" points="131.7236,-143.1 131.7236,-165.1 "/>
<text text-anchor="middle" x="156.1094" y="-149.9" font-family="Times,serif" font-size="14.00" fill="#000000">f(t+1)</text>
</g>
<!-- 270422270&#45;&gt;829295310 -->
<g id="edge7" class="edge">
<title>270422270:x(t+1)&#45;&gt;829295310:x(t)</title>
<path fill="none" stroke="#000000" d="M54,-246.1C54,-233.6336 54.5743,-228.2604 54.8524,-219.2298"/>
<polygon fill="#000000" stroke="#000000" points="58.3539,-219.1499 55,-209.1 51.3546,-219.0479 58.3539,-219.1499"/>
</g>
<!-- 270422270&#45;&gt;829295310 -->
<g id="edge8" class="edge">
<title>270422270:v(t+1)&#45;&gt;829295310:v(t)</title>
<path fill="none" stroke="#000000" d="M105,-246.1C105,-233.6382 105,-228.2592 105,-219.2281"/>
<polygon fill="#000000" stroke="#000000" points="108.5001,-219.1 105,-209.1 101.5001,-219.1 108.5001,-219.1"/>
</g>
<!-- 270422270&#45;&gt;829295310 -->
<g id="edge9" class="edge">
<title>270422270:f(t+1)&#45;&gt;829295310:f(t)</title>
<path fill="none" stroke="#000000" d="M155,-246.1C155,-233.6382 155,-228.2592 155,-219.2281"/>
<polygon fill="#000000" stroke="#000000" points="158.5001,-219.1 155,-209.1 151.5001,-219.1 158.5001,-219.1"/>
</g>
<!-- 735621077 -->
<g id="node13" class="node">
<title>735621077</title>
<polygon fill="none" stroke="#000000" points="30.5049,-40.1 30.5049,-106.1 181.4951,-106.1 181.4951,-40.1 30.5049,-40.1"/>
<text text-anchor="middle" x="55.6118" y="-90.9" font-family="Times,serif" font-size="14.00" fill="#000000">x(t)</text>
<polyline fill="none" stroke="#000000" points="80.7188,-84.1 80.7188,-106.1 "/>
<text text-anchor="middle" x="106.3257" y="-90.9" font-family="Times,serif" font-size="14.00" fill="#000000">v(t)</text>
<polyline fill="none" stroke="#000000" points="131.9326,-84.1 131.9326,-106.1 "/>
<text text-anchor="middle" x="156.3706" y="-90.9" font-family="Times,serif" font-size="14.00" fill="#000000">f(t)</text>
<polyline fill="none" stroke="#000000" points="30.5049,-84.1 181.4951,-84.1 "/>
<text text-anchor="middle" x="106" y="-68.9" font-family="Times,serif" font-size="14.00" fill="#000000">pend_step</text>
<polyline fill="none" stroke="#000000" points="30.5049,-62.1 181.4951,-62.1 "/>
<text text-anchor="middle" x="56.0596" y="-46.9" font-family="Times,serif" font-size="14.00" fill="#000000">x(t+1)</text>
<polyline fill="none" stroke="#000000" points="81.6143,-40.1 81.6143,-62.1 "/>
<text text-anchor="middle" x="107.1689" y="-46.9" font-family="Times,serif" font-size="14.00" fill="#000000">v(t+1)</text>
<polyline fill="none" stroke="#000000" points="132.7236,-40.1 132.7236,-62.1 "/>
<text text-anchor="middle" x="157.1094" y="-46.9" font-family="Times,serif" font-size="14.00" fill="#000000">f(t+1)</text>
</g>
<!-- 829295310&#45;&gt;735621077 -->
<g id="edge4" class="edge">
<title>829295310:x(t+1)&#45;&gt;735621077:x(t)</title>
<path fill="none" stroke="#000000" d="M55,-143.1C55,-130.6336 55.5743,-125.2604 55.8524,-116.2298"/>
<polygon fill="#000000" stroke="#000000" points="59.3539,-116.1499 56,-106.1 52.3546,-116.0479 59.3539,-116.1499"/>
</g>
<!-- 829295310&#45;&gt;735621077 -->
<g id="edge5" class="edge">
<title>829295310:v(t+1)&#45;&gt;735621077:v(t)</title>
<path fill="none" stroke="#000000" d="M106,-143.1C106,-130.6382 106,-125.2592 106,-116.2281"/>
<polygon fill="#000000" stroke="#000000" points="109.5001,-116.1 106,-106.1 102.5001,-116.1 109.5001,-116.1"/>
</g>
<!-- 829295310&#45;&gt;735621077 -->
<g id="edge6" class="edge">
<title>829295310:f(t+1)&#45;&gt;735621077:f(t)</title>
<path fill="none" stroke="#000000" d="M156,-143.1C156,-130.6382 156,-125.2592 156,-116.2281"/>
<polygon fill="#000000" stroke="#000000" points="159.5001,-116.1 156,-106.1 152.5001,-116.1 159.5001,-116.1"/>
</g>
<!-- 845413898 -->
<g id="node14" class="node">
<title>845413898</title>
<ellipse fill="#000000" stroke="#000000" cx="56" cy="-1.8" rx="1.8" ry="1.8"/>
</g>
<!-- 735621077&#45;&gt;845413898 -->
<g id="edge1" class="edge">
<title>735621077:x(t+1)&#45;&gt;845413898</title>
<path fill="none" stroke="#000000" d="M56,-40.1C56,-31.3479 56,-21.4707 56,-13.9391"/>
<polygon fill="#000000" stroke="#000000" points="59.5001,-13.8758 56,-3.8758 52.5001,-13.8759 59.5001,-13.8758"/>
</g>
<!-- 99018735 -->
<g id="node15" class="node">
<title>99018735</title>
<ellipse fill="#000000" stroke="#000000" cx="107" cy="-1.8" rx="1.8" ry="1.8"/>
</g>
<!-- 735621077&#45;&gt;99018735 -->
<g id="edge2" class="edge">
<title>735621077:v(t+1)&#45;&gt;99018735</title>
<path fill="none" stroke="#000000" d="M107,-40.1C107,-31.3479 107,-21.4707 107,-13.9391"/>
<polygon fill="#000000" stroke="#000000" points="110.5001,-13.8758 107,-3.8758 103.5001,-13.8759 110.5001,-13.8758"/>
</g>
<!-- 631943839 -->
<g id="node16" class="node">
<title>631943839</title>
<ellipse fill="#000000" stroke="#000000" cx="157" cy="-1.8" rx="1.8" ry="1.8"/>
</g>
<!-- 735621077&#45;&gt;631943839 -->
<g id="edge3" class="edge">
<title>735621077:f(t+1)&#45;&gt;631943839</title>
<path fill="none" stroke="#000000" d="M157,-40.1C157,-31.3479 157,-21.4707 157,-13.9391"/>
<polygon fill="#000000" stroke="#000000" points="160.5001,-13.8758 157,-3.8758 153.5001,-13.8759 160.5001,-13.8758"/>
</g>
</g>
</svg>
