<?xml version="1.0" encoding="UTF-8" standalone="no"?>
<!DOCTYPE svg PUBLIC "-//W3C//DTD SVG 1.1//EN"
 "http://www.w3.org/Graphics/SVG/1.1/DTD/svg11.dtd">
<!-- Generated by graphviz version 2.43.0 (0)
 -->
<!-- Title: %3 Pages: 1 -->
<svg width="494pt" height="320pt"
 viewBox="0.00 0.00 493.89 320.17" xmlns="http://www.w3.org/2000/svg" xmlns:xlink="http://www.w3.org/1999/xlink">
<g id="graph0" class="graph" transform="scale(1 1) rotate(0) translate(4 316.17)">
<title>%3</title>
<polygon fill="white" stroke="transparent" points="-4,4 -4,-316.17 489.89,-316.17 489.89,4 -4,4"/>
<!-- T!val!2 -->
<g id="node1" class="node">
<title>T!val!2</title>
<ellipse fill="none" stroke="black" cx="179.95" cy="-90" rx="44.39" ry="18"/>
<text text-anchor="middle" x="179.95" y="-86.3" font-family="Times,serif" font-size="14.00">T!val!2</text>
</g>
<!-- b -->
<g id="node2" class="node">
<title>b</title>
<ellipse fill="none" stroke="black" cx="179.95" cy="-18" rx="27" ry="18"/>
<text text-anchor="middle" x="179.95" y="-14.3" font-family="Times,serif" font-size="14.00">b</text>
</g>
<!-- T!val!2&#45;&gt;b -->
<g id="edge1" class="edge">
<title>T!val!2&#45;&gt;b</title>
<path fill="none" stroke="black" d="M179.95,-71.7C179.95,-63.98 179.95,-54.71 179.95,-46.11"/>
<polygon fill="black" stroke="black" points="183.45,-46.1 179.95,-36.1 176.45,-46.1 183.45,-46.1"/>
</g>
<!-- T!val!0 -->
<g id="node3" class="node">
<title>T!val!0</title>
<ellipse fill="none" stroke="black" cx="305.95" cy="-90" rx="44.39" ry="18"/>
<text text-anchor="middle" x="305.95" y="-86.3" font-family="Times,serif" font-size="14.00">T!val!0</text>
</g>
<!-- a -->
<g id="node4" class="node">
<title>a</title>
<ellipse fill="none" stroke="black" cx="305.95" cy="-18" rx="27" ry="18"/>
<text text-anchor="middle" x="305.95" y="-14.3" font-family="Times,serif" font-size="14.00">a</text>
</g>
<!-- T!val!0&#45;&gt;a -->
<g id="edge2" class="edge">
<title>T!val!0&#45;&gt;a</title>
<path fill="none" stroke="black" d="M305.95,-71.7C305.95,-63.98 305.95,-54.71 305.95,-46.11"/>
<polygon fill="black" stroke="black" points="309.45,-46.1 305.95,-36.1 302.45,-46.1 309.45,-46.1"/>
</g>
<!-- f(T!val!1) -->
<g id="node5" class="node">
<title>f(T!val!1)</title>
<ellipse fill="none" stroke="black" cx="53.95" cy="-162" rx="53.89" ry="18"/>
<text text-anchor="middle" x="53.95" y="-158.3" font-family="Times,serif" font-size="14.00">f(T!val!1)</text>
</g>
<!-- T!val!1 -->
<g id="node6" class="node">
<title>T!val!1</title>
<ellipse fill="none" stroke="black" cx="53.95" cy="-90" rx="44.39" ry="18"/>
<text text-anchor="middle" x="53.95" y="-86.3" font-family="Times,serif" font-size="14.00">T!val!1</text>
</g>
<!-- f(T!val!1)&#45;&gt;T!val!1 -->
<g id="edge3" class="edge">
<title>f(T!val!1)&#45;&gt;T!val!1</title>
<path fill="none" stroke="black" d="M53.95,-143.7C53.95,-135.98 53.95,-126.71 53.95,-118.11"/>
<polygon fill="black" stroke="black" points="57.45,-118.1 53.95,-108.1 50.45,-118.1 57.45,-118.1"/>
</g>
<!-- [T!val!1 &#45;&gt; T!val!0,
 T!val!2 &#45;&gt; T!val!3,
 T!val!3 &#45;&gt; T!val!2,
 else &#45;&gt; T!val!1] -->
<g id="node7" class="node">
<title>[T!val!1 &#45;&gt; T!val!0,
 T!val!2 &#45;&gt; T!val!3,
 T!val!3 &#45;&gt; T!val!2,
 else &#45;&gt; T!val!1]</title>
<ellipse fill="none" stroke="black" cx="242.95" cy="-264.08" rx="108.79" ry="48.17"/>
<text text-anchor="middle" x="242.95" y="-282.88" font-family="Times,serif" font-size="14.00">[T!val!1 &#45;&gt; T!val!0,</text>
<text text-anchor="middle" x="242.95" y="-267.88" font-family="Times,serif" font-size="14.00"> T!val!2 &#45;&gt; T!val!3,</text>
<text text-anchor="middle" x="242.95" y="-252.88" font-family="Times,serif" font-size="14.00"> T!val!3 &#45;&gt; T!val!2,</text>
<text text-anchor="middle" x="242.95" y="-237.88" font-family="Times,serif" font-size="14.00"> else &#45;&gt; T!val!1]</text>
</g>
<!-- [T!val!1 &#45;&gt; T!val!0,
 T!val!2 &#45;&gt; T!val!3,
 T!val!3 &#45;&gt; T!val!2,
 else &#45;&gt; T!val!1]&#45;&gt;f(T!val!1) -->
<g id="edge4" class="edge">
<title>[T!val!1 &#45;&gt; T!val!0,
 T!val!2 &#45;&gt; T!val!3,
 T!val!3 &#45;&gt; T!val!2,
 else &#45;&gt; T!val!1]&#45;&gt;f(T!val!1)</title>
<path fill="none" stroke="black" d="M174.18,-226.67C145.85,-211.67 114.19,-194.9 90.47,-182.34"/>
<polygon fill="black" stroke="black" points="91.94,-179.16 81.47,-177.57 88.66,-185.35 91.94,-179.16"/>
</g>
<!-- f(T!val!2) -->
<g id="node8" class="node">
<title>f(T!val!2)</title>
<ellipse fill="none" stroke="black" cx="179.95" cy="-162" rx="53.89" ry="18"/>
<text text-anchor="middle" x="179.95" y="-158.3" font-family="Times,serif" font-size="14.00">f(T!val!2)</text>
</g>
<!-- [T!val!1 &#45;&gt; T!val!0,
 T!val!2 &#45;&gt; T!val!3,
 T!val!3 &#45;&gt; T!val!2,
 else &#45;&gt; T!val!1]&#45;&gt;f(T!val!2) -->
<g id="edge6" class="edge">
<title>[T!val!1 &#45;&gt; T!val!0,
 T!val!2 &#45;&gt; T!val!3,
 T!val!3 &#45;&gt; T!val!2,
 else &#45;&gt; T!val!1]&#45;&gt;f(T!val!2)</title>
<path fill="none" stroke="black" d="M214.21,-217.43C207.95,-207.49 201.54,-197.3 195.98,-188.48"/>
<polygon fill="black" stroke="black" points="198.83,-186.44 190.54,-179.84 192.91,-190.17 198.83,-186.44"/>
</g>
<!-- f(T!val!0) -->
<g id="node9" class="node">
<title>f(T!val!0)</title>
<ellipse fill="none" stroke="black" cx="305.95" cy="-162" rx="53.89" ry="18"/>
<text text-anchor="middle" x="305.95" y="-158.3" font-family="Times,serif" font-size="14.00">f(T!val!0)</text>
</g>
<!-- [T!val!1 &#45;&gt; T!val!0,
 T!val!2 &#45;&gt; T!val!3,
 T!val!3 &#45;&gt; T!val!2,
 else &#45;&gt; T!val!1]&#45;&gt;f(T!val!0) -->
<g id="edge8" class="edge">
<title>[T!val!1 &#45;&gt; T!val!0,
 T!val!2 &#45;&gt; T!val!3,
 T!val!3 &#45;&gt; T!val!2,
 else &#45;&gt; T!val!1]&#45;&gt;f(T!val!0)</title>
<path fill="none" stroke="black" d="M271.68,-217.43C277.94,-207.49 284.35,-197.3 289.91,-188.48"/>
<polygon fill="black" stroke="black" points="292.98,-190.17 295.35,-179.84 287.06,-186.44 292.98,-190.17"/>
</g>
<!-- f(T!val!3) -->
<g id="node10" class="node">
<title>f(T!val!3)</title>
<ellipse fill="none" stroke="black" cx="431.95" cy="-162" rx="53.89" ry="18"/>
<text text-anchor="middle" x="431.95" y="-158.3" font-family="Times,serif" font-size="14.00">f(T!val!3)</text>
</g>
<!-- [T!val!1 &#45;&gt; T!val!0,
 T!val!2 &#45;&gt; T!val!3,
 T!val!3 &#45;&gt; T!val!2,
 else &#45;&gt; T!val!1]&#45;&gt;f(T!val!3) -->
<g id="edge10" class="edge">
<title>[T!val!1 &#45;&gt; T!val!0,
 T!val!2 &#45;&gt; T!val!3,
 T!val!3 &#45;&gt; T!val!2,
 else &#45;&gt; T!val!1]&#45;&gt;f(T!val!3)</title>
<path fill="none" stroke="black" d="M311.71,-226.67C340.04,-211.67 371.7,-194.9 395.43,-182.34"/>
<polygon fill="black" stroke="black" points="397.23,-185.35 404.43,-177.57 393.95,-179.16 397.23,-185.35"/>
</g>
<!-- f(T!val!2)&#45;&gt;T!val!2 -->
<g id="edge5" class="edge">
<title>f(T!val!2)&#45;&gt;T!val!2</title>
<path fill="none" stroke="black" d="M179.95,-143.7C179.95,-135.98 179.95,-126.71 179.95,-118.11"/>
<polygon fill="black" stroke="black" points="183.45,-118.1 179.95,-108.1 176.45,-118.1 183.45,-118.1"/>
</g>
<!-- f(T!val!0)&#45;&gt;T!val!0 -->
<g id="edge7" class="edge">
<title>f(T!val!0)&#45;&gt;T!val!0</title>
<path fill="none" stroke="black" d="M305.95,-143.7C305.95,-135.98 305.95,-126.71 305.95,-118.11"/>
<polygon fill="black" stroke="black" points="309.45,-118.1 305.95,-108.1 302.45,-118.1 309.45,-118.1"/>
</g>
<!-- T!val!3 -->
<g id="node11" class="node">
<title>T!val!3</title>
<ellipse fill="none" stroke="black" cx="431.95" cy="-90" rx="44.39" ry="18"/>
<text text-anchor="middle" x="431.95" y="-86.3" font-family="Times,serif" font-size="14.00">T!val!3</text>
</g>
<!-- f(T!val!3)&#45;&gt;T!val!3 -->
<g id="edge9" class="edge">
<title>f(T!val!3)&#45;&gt;T!val!3</title>
<path fill="none" stroke="black" d="M431.95,-143.7C431.95,-135.98 431.95,-126.71 431.95,-118.11"/>
<polygon fill="black" stroke="black" points="435.45,-118.1 431.95,-108.1 428.45,-118.1 435.45,-118.1"/>
</g>
</g>
</svg>
