<?xml version="1.0" encoding="UTF-8" standalone="no"?>
<!DOCTYPE svg PUBLIC "-//W3C//DTD SVG 1.1//EN"
 "http://www.w3.org/Graphics/SVG/1.1/DTD/svg11.dtd">
<!-- Generated by graphviz version 2.43.0 (0)
 -->
<!-- Title: %3 Pages: 1 -->
<svg width="295pt" height="211pt"
 viewBox="0.00 0.00 295.20 211.00" xmlns="http://www.w3.org/2000/svg" xmlns:xlink="http://www.w3.org/1999/xlink">
<g id="graph0" class="graph" transform="scale(1 1) rotate(0) translate(4 207)">
<title>%3</title>
<polygon fill="white" stroke="transparent" points="-4,4 -4,-207 291.2,-207 291.2,4 -4,4"/>
<!-- 16 -->
<g id="node1" class="node">
<title>16</title>
<path fill="none" stroke="black" d="M143.2,-156.5C143.2,-156.5 173.2,-156.5 173.2,-156.5 179.2,-156.5 185.2,-162.5 185.2,-168.5 185.2,-168.5 185.2,-190.5 185.2,-190.5 185.2,-196.5 179.2,-202.5 173.2,-202.5 173.2,-202.5 143.2,-202.5 143.2,-202.5 137.2,-202.5 131.2,-196.5 131.2,-190.5 131.2,-190.5 131.2,-168.5 131.2,-168.5 131.2,-162.5 137.2,-156.5 143.2,-156.5"/>
<text text-anchor="middle" x="158.2" y="-187.3" font-family="Times,serif" font-size="14.00">*</text>
<polyline fill="none" stroke="black" points="131.2,-179.5 185.2,-179.5 "/>
<text text-anchor="middle" x="144.7" y="-164.3" font-family="Times,serif" font-size="14.00"> </text>
<polyline fill="none" stroke="black" points="158.2,-156.5 158.2,-179.5 "/>
<text text-anchor="middle" x="171.7" y="-164.3" font-family="Times,serif" font-size="14.00"> </text>
</g>
<!-- 17 -->
<g id="node2" class="node">
<title>17</title>
<path fill="none" stroke="black" d="M136.2,-73.5C136.2,-73.5 166.2,-73.5 166.2,-73.5 172.2,-73.5 178.2,-79.5 178.2,-85.5 178.2,-85.5 178.2,-107.5 178.2,-107.5 178.2,-113.5 172.2,-119.5 166.2,-119.5 166.2,-119.5 136.2,-119.5 136.2,-119.5 130.2,-119.5 124.2,-113.5 124.2,-107.5 124.2,-107.5 124.2,-85.5 124.2,-85.5 124.2,-79.5 130.2,-73.5 136.2,-73.5"/>
<text text-anchor="middle" x="151.2" y="-104.3" font-family="Times,serif" font-size="14.00">&lt;&lt;</text>
<polyline fill="none" stroke="black" points="124.2,-96.5 178.2,-96.5 "/>
<text text-anchor="middle" x="137.7" y="-81.3" font-family="Times,serif" font-size="14.00"> </text>
<polyline fill="none" stroke="black" points="151.2,-73.5 151.2,-96.5 "/>
<text text-anchor="middle" x="164.7" y="-81.3" font-family="Times,serif" font-size="14.00"> </text>
</g>
<!-- 16&#45;&gt;17 -->
<g id="edge1" class="edge">
<title>16:head&#45;&gt;17:head</title>
<path fill="none" stroke="red" stroke-dasharray="5,2" d="M130.2,-191.5C114.41,-191.5 127.02,-171.22 131.2,-156 134.94,-142.35 144.86,-139.23 149.16,-130.05"/>
<polygon fill="red" stroke="red" points="152.64,-130.5 151.2,-120 145.78,-129.1 152.64,-130.5"/>
</g>
<!-- 12 -->
<g id="node3" class="node">
<title>12</title>
<path fill="none" stroke="black" d="M50.2,-0.5C50.2,-0.5 80.2,-0.5 80.2,-0.5 86.2,-0.5 92.2,-6.5 92.2,-12.5 92.2,-12.5 92.2,-24.5 92.2,-24.5 92.2,-30.5 86.2,-36.5 80.2,-36.5 80.2,-36.5 50.2,-36.5 50.2,-36.5 44.2,-36.5 38.2,-30.5 38.2,-24.5 38.2,-24.5 38.2,-12.5 38.2,-12.5 38.2,-6.5 44.2,-0.5 50.2,-0.5"/>
<text text-anchor="middle" x="65.2" y="-14.8" font-family="Times,serif" font-size="14.00">a</text>
</g>
<!-- 16&#45;&gt;12 -->
<g id="edge2" class="edge">
<title>16:p0&#45;&gt;12:head</title>
<path fill="none" stroke="black" d="M130.2,-167.5C123.97,-167.5 126.98,-159.99 122.2,-156 92.57,-131.28 64.07,-152.45 43.2,-120 28.84,-97.68 38.27,-67.46 48.88,-45.81"/>
<polygon fill="black" stroke="black" points="52.05,-47.3 53.59,-36.82 45.85,-44.05 52.05,-47.3"/>
</g>
<!-- 14 -->
<g id="node4" class="node">
<title>14</title>
<path fill="none" stroke="black" d="M208.2,-78.5C208.2,-78.5 238.2,-78.5 238.2,-78.5 244.2,-78.5 250.2,-84.5 250.2,-90.5 250.2,-90.5 250.2,-102.5 250.2,-102.5 250.2,-108.5 244.2,-114.5 238.2,-114.5 238.2,-114.5 208.2,-114.5 208.2,-114.5 202.2,-114.5 196.2,-108.5 196.2,-102.5 196.2,-102.5 196.2,-90.5 196.2,-90.5 196.2,-84.5 202.2,-78.5 208.2,-78.5"/>
<text text-anchor="middle" x="223.2" y="-92.8" font-family="Times,serif" font-size="14.00">2</text>
</g>
<!-- 16&#45;&gt;14 -->
<g id="edge3" class="edge">
<title>16:p1&#45;&gt;14:head</title>
<path fill="none" stroke="black" d="M172.2,-156C172.2,-147.78 183.57,-134.05 195.58,-121.85"/>
<polygon fill="black" stroke="black" points="198.36,-124.02 203.04,-114.51 193.46,-119.03 198.36,-124.02"/>
</g>
<!-- 17&#45;&gt;12 -->
<g id="edge4" class="edge">
<title>17:p0&#45;&gt;12:head</title>
<path fill="none" stroke="black" d="M123.2,-84.5C116.97,-84.5 119.09,-77.86 115.2,-73 107.38,-63.23 98.26,-53 89.98,-44.08"/>
<polygon fill="black" stroke="black" points="92.36,-41.5 82.96,-36.62 87.26,-46.3 92.36,-41.5"/>
</g>
<!-- 13 -->
<g id="node5" class="node">
<title>13</title>
<path fill="none" stroke="black" d="M150.2,-0.5C150.2,-0.5 180.2,-0.5 180.2,-0.5 186.2,-0.5 192.2,-6.5 192.2,-12.5 192.2,-12.5 192.2,-24.5 192.2,-24.5 192.2,-30.5 186.2,-36.5 180.2,-36.5 180.2,-36.5 150.2,-36.5 150.2,-36.5 144.2,-36.5 138.2,-30.5 138.2,-24.5 138.2,-24.5 138.2,-12.5 138.2,-12.5 138.2,-6.5 144.2,-0.5 150.2,-0.5"/>
<text text-anchor="middle" x="165.2" y="-14.8" font-family="Times,serif" font-size="14.00">1</text>
</g>
<!-- 17&#45;&gt;13 -->
<g id="edge5" class="edge">
<title>17:p1&#45;&gt;13:head</title>
<path fill="none" stroke="black" d="M165.2,-73C165.2,-64.48 165.2,-55.22 165.2,-46.79"/>
<polygon fill="black" stroke="black" points="168.7,-46.67 165.2,-36.67 161.7,-46.67 168.7,-46.67"/>
</g>
<!-- 18 -->
<g id="node6" class="node">
<title>18</title>
<path fill="none" stroke="black" d="M64.2,-73.5C64.2,-73.5 94.2,-73.5 94.2,-73.5 100.2,-73.5 106.2,-79.5 106.2,-85.5 106.2,-85.5 106.2,-107.5 106.2,-107.5 106.2,-113.5 100.2,-119.5 94.2,-119.5 94.2,-119.5 64.2,-119.5 64.2,-119.5 58.2,-119.5 52.2,-113.5 52.2,-107.5 52.2,-107.5 52.2,-85.5 52.2,-85.5 52.2,-79.5 58.2,-73.5 64.2,-73.5"/>
<text text-anchor="middle" x="79.2" y="-104.3" font-family="Times,serif" font-size="14.00">*</text>
<polyline fill="none" stroke="black" points="52.2,-96.5 106.2,-96.5 "/>
<text text-anchor="middle" x="65.7" y="-81.3" font-family="Times,serif" font-size="14.00"> </text>
<polyline fill="none" stroke="black" points="79.2,-73.5 79.2,-96.5 "/>
<text text-anchor="middle" x="92.7" y="-81.3" font-family="Times,serif" font-size="14.00"> </text>
</g>
<!-- 18&#45;&gt;12 -->
<g id="edge6" class="edge">
<title>18:head&#45;&gt;12:head</title>
<path fill="none" stroke="red" stroke-dasharray="5,2" d="M51.2,-108.5C38.44,-108.5 47.33,-72.73 55.64,-46.29"/>
<polygon fill="red" stroke="red" points="59,-47.3 58.76,-36.71 52.34,-45.14 59,-47.3"/>
</g>
<!-- 18&#45;&gt;12 -->
<g id="edge7" class="edge">
<title>18:p0&#45;&gt;12:head</title>
<path fill="none" stroke="black" d="M65.2,-73C65.2,-64.48 65.2,-55.22 65.2,-46.79"/>
<polygon fill="black" stroke="black" points="68.7,-46.67 65.2,-36.67 61.7,-46.67 68.7,-46.67"/>
</g>
<!-- 18&#45;&gt;13 -->
<g id="edge8" class="edge">
<title>18:p1&#45;&gt;13:head</title>
<path fill="none" stroke="black" d="M107.2,-84.5C113.42,-84.5 111.31,-77.86 115.2,-73 123.02,-63.23 132.13,-53 140.42,-44.08"/>
<polygon fill="black" stroke="black" points="143.13,-46.3 147.43,-36.62 138.03,-41.5 143.13,-46.3"/>
</g>
<!-- 19 -->
<g id="node7" class="node">
<title>19</title>
<path fill="none" stroke="black" d="M222.2,-156.5C222.2,-156.5 252.2,-156.5 252.2,-156.5 258.2,-156.5 264.2,-162.5 264.2,-168.5 264.2,-168.5 264.2,-190.5 264.2,-190.5 264.2,-196.5 258.2,-202.5 252.2,-202.5 252.2,-202.5 222.2,-202.5 222.2,-202.5 216.2,-202.5 210.2,-196.5 210.2,-190.5 210.2,-190.5 210.2,-168.5 210.2,-168.5 210.2,-162.5 216.2,-156.5 222.2,-156.5"/>
<text text-anchor="middle" x="237.2" y="-187.3" font-family="Times,serif" font-size="14.00">/</text>
<polyline fill="none" stroke="black" points="210.2,-179.5 264.2,-179.5 "/>
<text text-anchor="middle" x="223.7" y="-164.3" font-family="Times,serif" font-size="14.00"> </text>
<polyline fill="none" stroke="black" points="237.2,-156.5 237.2,-179.5 "/>
<text text-anchor="middle" x="250.7" y="-164.3" font-family="Times,serif" font-size="14.00"> </text>
</g>
<!-- 19&#45;&gt;14 -->
<g id="edge10" class="edge">
<title>19:p0&#45;&gt;14:head</title>
<path fill="none" stroke="black" d="M223.2,-156C223.2,-145.83 223.2,-134.69 223.2,-124.83"/>
<polygon fill="black" stroke="black" points="226.7,-124.73 223.2,-114.73 219.7,-124.73 226.7,-124.73"/>
</g>
<!-- 19&#45;&gt;14 -->
<g id="edge11" class="edge">
<title>19:p1&#45;&gt;14:head</title>
<path fill="none" stroke="black" d="M251.2,-156C251.2,-144.67 246.99,-133.18 241.83,-123.35"/>
<polygon fill="black" stroke="black" points="244.75,-121.4 236.71,-114.51 238.69,-124.91 244.75,-121.4"/>
</g>
<!-- 19&#45;&gt;13 -->
<g id="edge9" class="edge">
<title>19:head&#45;&gt;13:head</title>
<path fill="none" stroke="red" stroke-dasharray="5,2" d="M265.2,-191.5C285.44,-191.5 304.53,-143.89 259.2,-73 242.91,-47.52 225.25,-52.89 200.62,-41.46"/>
<polygon fill="red" stroke="red" points="202.08,-38.27 191.61,-36.64 198.78,-44.45 202.08,-38.27"/>
</g>
<!-- 20 -->
<g id="node8" class="node">
<title>20</title>
<path fill="none" stroke="black" d="M71.2,-156.5C71.2,-156.5 101.2,-156.5 101.2,-156.5 107.2,-156.5 113.2,-162.5 113.2,-168.5 113.2,-168.5 113.2,-190.5 113.2,-190.5 113.2,-196.5 107.2,-202.5 101.2,-202.5 101.2,-202.5 71.2,-202.5 71.2,-202.5 65.2,-202.5 59.2,-196.5 59.2,-190.5 59.2,-190.5 59.2,-168.5 59.2,-168.5 59.2,-162.5 65.2,-156.5 71.2,-156.5"/>
<text text-anchor="middle" x="86.2" y="-187.3" font-family="Times,serif" font-size="14.00">/</text>
<polyline fill="none" stroke="black" points="59.2,-179.5 113.2,-179.5 "/>
<text text-anchor="middle" x="72.7" y="-164.3" font-family="Times,serif" font-size="14.00"> </text>
<polyline fill="none" stroke="black" points="86.2,-156.5 86.2,-179.5 "/>
<text text-anchor="middle" x="99.7" y="-164.3" font-family="Times,serif" font-size="14.00"> </text>
</g>
<!-- 20&#45;&gt;17 -->
<g id="edge13" class="edge">
<title>20:p0&#45;&gt;17:head</title>
<path fill="none" stroke="black" d="M72.2,-156C72.2,-131.08 98.38,-138.39 115.2,-120 116.12,-118.99 116.72,-117.88 117.16,-116.75"/>
<polygon fill="black" stroke="black" points="120.12,-118.64 123.2,-108.5 114.47,-114.5 120.12,-118.64"/>
</g>
<!-- 20&#45;&gt;12 -->
<g id="edge12" class="edge">
<title>20:head&#45;&gt;12:head</title>
<path fill="none" stroke="red" stroke-dasharray="5,2" d="M58.2,-191.5C1.37,-191.5 -11.67,-125.45 10.2,-73 14.84,-61.87 22.98,-51.84 31.6,-43.52"/>
<polygon fill="red" stroke="red" points="34.14,-45.95 39.22,-36.66 29.45,-40.75 34.14,-45.95"/>
</g>
<!-- 20&#45;&gt;14 -->
<g id="edge14" class="edge">
<title>20:p1&#45;&gt;14:head</title>
<path fill="none" stroke="black" d="M114.2,-167.5C120.42,-167.5 117.58,-160.17 122.2,-156 147.49,-133.17 161.45,-134.29 188.08,-119.71"/>
<polygon fill="black" stroke="black" points="189.9,-122.7 196.78,-114.64 186.38,-116.65 189.9,-122.7"/>
</g>
</g>
</svg>
