<?xml version="1.0" encoding="UTF-8" standalone="no"?><!DOCTYPE svg PUBLIC "-//W3C//DTD SVG 1.1//EN" "http://www.w3.org/Graphics/SVG/1.1/DTD/svg11.dtd"><!-- Generated by graphviz version 2.40.1 (20161225.0304)
 --><!-- Title: AST Pages: 1 --><svg xmlns="http://www.w3.org/2000/svg" xmlns:xlink="http://www.w3.org/1999/xlink" width="188pt" height="290pt" viewBox="0.00 0.00 187.97 290.20">
<g id="graph0" class="graph" transform="scale(1 1) rotate(0) translate(4 286.2)">
<title>AST</title>
<polygon fill="#ffffff" stroke="transparent" points="-4,4 -4,-286.2 183.9736,-286.2 183.9736,4 -4,4"/>
<!-- node3 -->
<g id="node1" class="node">
<title>node3</title>
<polygon fill="none" stroke="#000000" points="26.9736,-232.1 26.9736,-281.7 86.9736,-281.7 86.9736,-232.1 26.9736,-232.1"/>
<text text-anchor="middle" x="56.9736" y="-265.1" font-family="Times,serif" font-size="14.00" fill="#000000">foo</text>
<polyline fill="none" stroke="#000000" points="26.9736,-256.9 86.9736,-256.9 "/>
<text text-anchor="middle" x="41.9736" y="-240.3" font-family="Times,serif" font-size="14.00" fill="#000000">x0</text>
<polyline fill="none" stroke="#000000" points="56.9736,-232.1 56.9736,-256.9 "/>
<text text-anchor="middle" x="71.9736" y="-240.3" font-family="Times,serif" font-size="14.00" fill="#000000">x1</text>
</g>
<!-- node5 -->
<g id="node2" class="node">
<title>node5</title>
<ellipse fill="none" stroke="#000000" cx="120.9736" cy="-177.6" rx="18" ry="18"/>
<text text-anchor="middle" x="120.9736" y="-173.4" font-family="Times,serif" font-size="14.00" fill="#000000">+</text>
</g>
<!-- node3&#45;&gt;node5 -->
<g id="edge2" class="edge">
<title>node3:port3-&gt;node5:port1</title>
<path fill="none" stroke="#000000" d="M71.9736,-231.9C71.9736,-215.4958 84.4519,-201.82 96.8145,-192.2963"/>
<polygon fill="#000000" stroke="#000000" points="99.0441,-195.0068 105.2,-186.3838 95.0103,-189.2859 99.0441,-195.0068"/>
</g>
<!-- node6 -->
<g id="node3" class="node">
<title>node6</title>
<polygon fill="none" stroke="#000000" points="125.9736,-.5 125.9736,-36.5 179.9736,-36.5 179.9736,-.5 125.9736,-.5"/>
<text text-anchor="middle" x="152.9112" y="-14.3" font-family="Times,serif" font-size="14.00" fill="#000000">bar</text>
</g>
<!-- node3&#45;&gt;node6 -->
<g id="edge1" class="edge">
<title>node3:port2-&gt;node6</title>
<path fill="none" stroke="#000000" d="M41.9736,-231.9C41.9736,-160.1113 -27.5484,-132.2587 12.9736,-73 24.9842,-55.4359 78.5541,-38.1222 115.8293,-27.8745"/>
<polygon fill="#000000" stroke="#000000" points="117.1143,-31.1534 125.8627,-25.1771 115.2969,-24.3934 117.1143,-31.1534"/>
</g>
<!-- node5&#45;&gt;node6 -->
<g id="edge3" class="edge">
<title>node5-&gt;node6:port2</title>
<path fill="none" stroke="#000000" d="M127.9641,-160.9525C134.7943,-150.9034 143.7943,-137.4034 147.9736,-123.6 155.5783,-98.4834 153.3837,-68.4432 151.5882,-46.9238"/>
<polygon fill="#000000" stroke="#000000" points="155.0647,-46.4927 150.7615,-36.8111 148.088,-47.0631 155.0647,-46.4927"/>
</g>
<!-- node5&#45;&gt;node6 -->
<g id="edge4" class="edge">
<title>node5-&gt;node6:port2</title>
<path fill="none" stroke="#000000" d="M136.5502,-168.171C147.6729,-158.0538 160.6841,-141.0699 165.9736,-123.6 173.613,-98.3687 171.3635,-68.1688 166.3349,-46.6295"/>
<polygon fill="#000000" stroke="#000000" points="169.668,-45.5475 163.6743,-36.8111 162.9117,-47.3785 169.668,-45.5475"/>
</g>
<!-- node8 -->
<g id="node4" class="node">
<title>node8</title>
<polygon fill="none" stroke="#000000" points="21.9736,-80.3 21.9736,-116.3 75.9736,-116.3 75.9736,-80.3 21.9736,-80.3"/>
<text text-anchor="middle" x="48.6882" y="-94.1" font-family="Times,serif" font-size="14.00" fill="#000000">baz</text>
</g>
<!-- node5&#45;&gt;node8 -->
<g id="edge6" class="edge">
<title>node5-&gt;node8</title>
<path fill="none" stroke="#000000" d="M108.7598,-164.1478C98.8323,-153.2139 84.5369,-137.469 72.4139,-124.1169"/>
<polygon fill="#000000" stroke="#000000" points="74.89,-121.6373 65.5766,-116.5864 69.7074,-126.3428 74.89,-121.6373"/>
</g>
<!-- node7 -->
<g id="node5" class="node">
<title>node7</title>
<polygon fill="none" stroke="#000000" points="93.9736,-73.5 93.9736,-123.1 147.9736,-123.1 147.9736,-73.5 93.9736,-73.5"/>
<text text-anchor="middle" x="120.5262" y="-106.5" font-family="Times,serif" font-size="14.00" fill="#000000">biz</text>
<polyline fill="none" stroke="#000000" points="93.9736,-98.3 147.0788,-98.3 "/>
<text text-anchor="middle" x="120.5262" y="-81.7" font-family="Times,serif" font-size="14.00" fill="#000000">x0</text>
</g>
<!-- node5&#45;&gt;node7 -->
<g id="edge5" class="edge">
<title>node5-&gt;node7:port1</title>
<path fill="none" stroke="#000000" d="M120.9736,-159.5C120.9736,-151.8287 120.9736,-142.5649 120.9736,-133.4443"/>
<polygon fill="#000000" stroke="#000000" points="124.4737,-133.3 120.9736,-123.3 117.4737,-133.3 124.4737,-133.3"/>
</g>
<!-- node7&#45;&gt;node6 -->
<g id="edge7" class="edge">
<title>node7:port2-&gt;node6</title>
<path fill="none" stroke="#000000" d="M120.9736,-73.3C120.9736,-63.3243 124.9769,-53.5497 130.1515,-45.082"/>
<polygon fill="#000000" stroke="#000000" points="133.078,-47.0032 135.8494,-36.7772 127.3059,-43.043 133.078,-47.0032"/>
</g>
</g>
</svg>