<?xml version="1.0" encoding="UTF-8" standalone="no"?>
<!DOCTYPE svg PUBLIC "-//W3C//DTD SVG 1.1//EN"
 "http://www.w3.org/Graphics/SVG/1.1/DTD/svg11.dtd">
<!-- Generated by graphviz version 2.43.0 (0)
 -->
<!-- Title: cons_0101_loop Pages: 1 -->
<svg width="344pt" height="148pt"
 viewBox="0.00 0.00 344.40 148.30" xmlns="http://www.w3.org/2000/svg" xmlns:xlink="http://www.w3.org/1999/xlink">
<g id="graph0" class="graph" transform="scale(1 1) rotate(0) translate(14.4 133.9)">
<title>cons_0101_loop</title>
<polygon fill="white" stroke="transparent" points="-14.4,14.4 -14.4,-133.9 330,-133.9 330,14.4 -14.4,14.4"/>
<!-- start -->
<g id="node1" class="node">
<title>start</title>
<ellipse fill="black" stroke="black" cx="1.8" cy="-35.5" rx="1.8" ry="1.8"/>
</g>
<!-- c0 -->
<g id="node2" class="node">
<title>c0</title>
<polygon fill="none" stroke="black" points="53.6,-12.5 53.6,-58.5 107.6,-58.5 107.6,-12.5 53.6,-12.5"/>
<text text-anchor="middle" x="80.6" y="-43.3" font-family="Helvetica,sans-Serif" font-size="14.00">car</text>
<polyline fill="none" stroke="black" points="53.6,-35.5 107.6,-35.5 "/>
<text text-anchor="middle" x="80.6" y="-20.3" font-family="Helvetica,sans-Serif" font-size="14.00">cdr</text>
</g>
<!-- start&#45;&gt;c0 -->
<g id="edge1" class="edge">
<title>start&#45;&gt;c0</title>
<path fill="none" stroke="black" d="M3.66,-35.5C7.77,-35.5 25.85,-35.5 43.35,-35.5"/>
<polygon fill="black" stroke="black" points="43.47,-39 53.47,-35.5 43.47,-32 43.47,-39"/>
</g>
<!-- c1 -->
<g id="node3" class="node">
<title>c1</title>
<polygon fill="none" stroke="black" points="157.6,-0.5 157.6,-46.5 211.6,-46.5 211.6,-0.5 157.6,-0.5"/>
<text text-anchor="middle" x="184.6" y="-31.3" font-family="Helvetica,sans-Serif" font-size="14.00">car</text>
<polyline fill="none" stroke="black" points="157.6,-23.5 211.6,-23.5 "/>
<text text-anchor="middle" x="184.6" y="-8.3" font-family="Helvetica,sans-Serif" font-size="14.00">cdr</text>
</g>
<!-- c0&#45;&gt;c1 -->
<g id="edge3" class="edge">
<title>c0:cdr&#45;&gt;c1</title>
<path fill="none" stroke="black" d="M107.6,-23.5C120.59,-23.5 134.83,-23.5 147.43,-23.5"/>
<polygon fill="black" stroke="black" points="147.57,-27 157.57,-23.5 147.57,-20 147.57,-27"/>
</g>
<!-- v0 -->
<g id="node4" class="node">
<title>v0</title>
<polygon fill="none" stroke="black" points="211.6,-119.5 157.6,-119.5 157.6,-83.5 211.6,-83.5 211.6,-119.5"/>
<text text-anchor="middle" x="184.6" y="-97.8" font-family="Helvetica,sans-Serif" font-size="14.00">0</text>
</g>
<!-- c0&#45;&gt;v0 -->
<g id="edge2" class="edge">
<title>c0:car&#45;&gt;v0</title>
<path fill="none" stroke="black" d="M107.6,-47.5C128.9,-47.5 148.39,-61.78 162.3,-75.65"/>
<polygon fill="black" stroke="black" points="160.03,-78.34 169.43,-83.22 165.12,-73.54 160.03,-78.34"/>
</g>
<!-- c1&#45;&gt;c0 -->
<g id="edge5" class="edge">
<title>c1:cdr&#45;&gt;c0</title>
<path fill="none" stroke="black" d="M157.6,-11.5C144.06,-11.5 129.77,-15.01 117.28,-19.34"/>
<polygon fill="black" stroke="black" points="115.83,-16.14 107.7,-22.94 118.29,-22.7 115.83,-16.14"/>
</g>
<!-- v1 -->
<g id="node5" class="node">
<title>v1</title>
<polygon fill="none" stroke="black" points="315.6,-53.5 261.6,-53.5 261.6,-17.5 315.6,-17.5 315.6,-53.5"/>
<text text-anchor="middle" x="288.6" y="-31.8" font-family="Helvetica,sans-Serif" font-size="14.00">1</text>
</g>
<!-- c1&#45;&gt;v1 -->
<g id="edge4" class="edge">
<title>c1:car&#45;&gt;v1</title>
<path fill="none" stroke="black" d="M211.6,-35.5C224.59,-35.5 238.83,-35.5 251.43,-35.5"/>
<polygon fill="black" stroke="black" points="251.57,-39 261.57,-35.5 251.57,-32 251.57,-39"/>
</g>
</g>
</svg>
