<?xml version="1.0" encoding="UTF-8" standalone="no"?>
<!DOCTYPE svg PUBLIC "-//W3C//DTD SVG 1.1//EN"
 "http://www.w3.org/Graphics/SVG/1.1/DTD/svg11.dtd">
<!-- Generated by graphviz version 2.43.0 (0)
 -->
<!-- Title: cluster4myfun Pages: 1 -->
<svg width="967pt" height="358pt"
 viewBox="0.00 0.00 967.00 358.00" xmlns="http://www.w3.org/2000/svg" xmlns:xlink="http://www.w3.org/1999/xlink">
<g id="graph0" class="graph" transform="scale(1 1) rotate(0) translate(4 354)">
<title>cluster4myfun</title>
<polygon fill="white" stroke="transparent" points="-4,4 -4,-354 963,-354 963,4 -4,4"/>
<text text-anchor="middle" x="479.5" y="-7.8" font-family="DejaVu Sans Mono" font-size="14.00">myfun</text>
<g id="clust1" class="cluster">
<title>cluster_1</title>
<polygon fill="purple" stroke="purple" points="33,-108 33,-227 107,-227 107,-108 33,-108"/>
</g>
<g id="clust2" class="cluster">
<title>cluster5myfun</title>
<polygon fill="none" stroke="black" points="148,-31 148,-342 562,-342 562,-31 148,-31"/>
<text text-anchor="middle" x="355" y="-326.8" font-family="DejaVu Sans Mono" font-size="14.00">myfun</text>
</g>
<g id="clust3" class="cluster">
<title>cluster_KEY</title>
<polygon fill="none" stroke="black" points="570,-108 570,-333.5 951,-333.5 951,-108 570,-108"/>
<text text-anchor="middle" x="760.5" y="-318.3" font-family="DejaVu Sans Mono" font-size="14.00">KEY</text>
</g>
<!-- 1 -->
<g id="node1" class="node">
<title>1</title>
<polygon fill="#fffb81" stroke="black" points="140,-303.5 0,-303.5 0,-265.5 140,-265.5 140,-303.5"/>
<text text-anchor="start" x="8" y="-288.3" font-family="DejaVu Sans Mono" font-size="14.00">def myfun():...</text>
<text text-anchor="start" x="8" y="-273.3" font-family="DejaVu Sans Mono" font-size="14.00">print(myfun())</text>
</g>
<!-- 12 -->
<g id="node2" class="node">
<title>12</title>
<polygon fill="#e552ff" stroke="#e552ff" points="99,-219 53,-219 53,-223 41,-223 41,-183 99,-183 99,-219"/>
<polyline fill="none" stroke="#e552ff" points="41,-219 53,-219 "/>
<text text-anchor="middle" x="70" y="-197.3" font-family="DejaVu Sans Mono" font-size="14.00">print</text>
</g>
<!-- 1&#45;&gt;12 -->
<g id="edge1" class="edge">
<title>1&#45;&gt;12</title>
<path fill="none" stroke="black" stroke-dasharray="5,2" d="M70,-265.41C70,-254.86 70,-241.33 70,-229.48"/>
<polygon fill="black" stroke="black" points="73.5,-229.2 70,-219.2 66.5,-229.2 73.5,-229.2"/>
<text text-anchor="middle" x="91" y="-238.8" font-family="DejaVu Sans Mono" font-size="14.00">calls</text>
</g>
<!-- 13 -->
<g id="node3" class="node">
<title>13</title>
<polygon fill="#e552ff" stroke="#e552ff" points="99,-152 53,-152 53,-156 41,-156 41,-116 99,-116 99,-152"/>
<polyline fill="none" stroke="#e552ff" points="41,-152 53,-152 "/>
<text text-anchor="middle" x="70" y="-130.3" font-family="DejaVu Sans Mono" font-size="14.00">myfun</text>
</g>
<!-- 12&#45;&gt;13 -->
<g id="edge2" class="edge">
<title>12&#45;&gt;13</title>
<path fill="none" stroke="black" d="M70,-182.92C70,-176.7 70,-169.5 70,-162.6"/>
<polygon fill="black" stroke="black" points="73.5,-162.19 70,-152.19 66.5,-162.19 73.5,-162.19"/>
</g>
<!-- 3 -->
<g id="node4" class="node">
<title>3</title>
<polygon fill="#fffb81" stroke="black" points="378,-311 320,-311 320,-258 378,-258 378,-311"/>
<text text-anchor="start" x="328" y="-295.8" font-family="DejaVu Sans Mono" font-size="14.00">i = 1</text>
<text text-anchor="start" x="328" y="-280.8" font-family="DejaVu Sans Mono" font-size="14.00">j = 1</text>
<text text-anchor="start" x="328" y="-265.8" font-family="DejaVu Sans Mono" font-size="14.00">k = 0</text>
</g>
<!-- 4 -->
<g id="node5" class="node">
<title>4</title>
<polygon fill="#ffbe52" stroke="black" points="448.13,-201 398.56,-219 299.44,-219 249.87,-201 299.44,-183 398.56,-183 448.13,-201"/>
<text text-anchor="start" x="280.79" y="-197.3" font-family="DejaVu Sans Mono" font-size="14.00">while k &lt; 100:</text>
</g>
<!-- 3&#45;&gt;4 -->
<g id="edge9" class="edge">
<title>3&#45;&gt;4</title>
<path fill="none" stroke="black" d="M349,-257.71C349,-248.66 349,-238.47 349,-229.3"/>
<polygon fill="black" stroke="black" points="352.5,-229.13 349,-219.13 345.5,-229.13 352.5,-229.13"/>
</g>
<!-- 5 -->
<g id="node6" class="node">
<title>5</title>
<polygon fill="#ff6752" stroke="black" points="443,-152 352.01,-134 443,-116 533.99,-134 443,-152"/>
<text text-anchor="start" x="381" y="-130.3" font-family="DejaVu Sans Mono" font-size="14.00">if j &lt; 20:</text>
</g>
<!-- 4&#45;&gt;5 -->
<g id="edge7" class="edge">
<title>4&#45;&gt;5</title>
<path fill="none" stroke="green" d="M373.7,-182.92C386.55,-174.04 402.3,-163.15 415.53,-154"/>
<polygon fill="green" stroke="green" points="417.57,-156.84 423.81,-148.27 413.59,-151.08 417.57,-156.84"/>
<text text-anchor="middle" x="433" y="-163.8" font-family="DejaVu Sans Mono" font-size="14.00">k &lt; 100</text>
</g>
<!-- 6 -->
<g id="node9" class="node">
<title>6</title>
<polygon fill="#98fb98" stroke="black" points="334.19,-152 208.22,-152 175.81,-116 301.78,-116 334.19,-152"/>
<text text-anchor="start" x="204.31" y="-130.3" font-family="DejaVu Sans Mono" font-size="14.00">return j</text>
</g>
<!-- 4&#45;&gt;6 -->
<g id="edge8" class="edge">
<title>4&#45;&gt;6</title>
<path fill="none" stroke="red" d="M312.8,-182.87C308.39,-180.39 304.02,-177.75 300,-175 293.08,-170.27 286.08,-164.59 279.73,-159"/>
<polygon fill="red" stroke="red" points="281.85,-156.2 272.09,-152.06 277.14,-161.38 281.85,-156.2"/>
<text text-anchor="middle" x="341.5" y="-163.8" font-family="DejaVu Sans Mono" font-size="14.00">(k &gt;= 100)</text>
</g>
<!-- 7 -->
<g id="node7" class="node">
<title>7</title>
<polygon fill="#fffb81" stroke="black" points="336.5,-77 245.5,-77 245.5,-39 336.5,-39 336.5,-77"/>
<text text-anchor="start" x="253.5" y="-61.8" font-family="DejaVu Sans Mono" font-size="14.00">j = i</text>
<text text-anchor="start" x="253.5" y="-46.8" font-family="DejaVu Sans Mono" font-size="14.00">k = k + 1</text>
</g>
<!-- 5&#45;&gt;7 -->
<g id="edge4" class="edge">
<title>5&#45;&gt;7</title>
<path fill="none" stroke="green" d="M417.9,-120.78C396.03,-110.13 363.74,-94.41 337.21,-81.5"/>
<polygon fill="green" stroke="green" points="338.62,-78.29 328.09,-77.06 335.55,-84.58 338.62,-78.29"/>
<text text-anchor="middle" x="396" y="-88.8" font-family="DejaVu Sans Mono" font-size="14.00">j &lt; 20</text>
</g>
<!-- 9 -->
<g id="node8" class="node">
<title>9</title>
<polygon fill="#fffb81" stroke="black" points="520.5,-77 429.5,-77 429.5,-39 520.5,-39 520.5,-77"/>
<text text-anchor="start" x="437.5" y="-61.8" font-family="DejaVu Sans Mono" font-size="14.00">j = k</text>
<text text-anchor="start" x="437.5" y="-46.8" font-family="DejaVu Sans Mono" font-size="14.00">k = k + 2</text>
</g>
<!-- 5&#45;&gt;9 -->
<g id="edge6" class="edge">
<title>5&#45;&gt;9</title>
<path fill="none" stroke="red" d="M449.79,-117.31C453.69,-108.28 458.71,-96.68 463.23,-86.21"/>
<polygon fill="red" stroke="red" points="466.45,-87.58 467.21,-77.01 460.03,-84.8 466.45,-87.58"/>
<text text-anchor="middle" x="500.5" y="-88.8" font-family="DejaVu Sans Mono" font-size="14.00">(j &gt;= 20)</text>
</g>
<!-- 7&#45;&gt;4 -->
<g id="edge3" class="edge">
<title>7&#45;&gt;4</title>
<path fill="none" stroke="black" d="M245.24,-64.3C217.6,-70.13 184.44,-82.35 167,-108 156,-124.17 155.06,-136.51 167,-152 179.91,-168.75 226.28,-180.83 268.98,-188.68"/>
<polygon fill="black" stroke="black" points="268.42,-192.14 278.87,-190.44 269.64,-185.25 268.42,-192.14"/>
</g>
<!-- 9&#45;&gt;4 -->
<g id="edge5" class="edge">
<title>9&#45;&gt;4</title>
<path fill="none" stroke="black" d="M520.63,-68.52C528.96,-72.3 536.69,-77.6 542,-85 559.35,-109.2 560.79,-128.12 543,-152 529.36,-170.31 478.48,-182.48 432.25,-189.98"/>
<polygon fill="black" stroke="black" points="431.51,-186.55 422.17,-191.56 432.59,-193.47 431.51,-186.55"/>
</g>
<!-- input -->
<g id="node10" class="node">
<title>input</title>
<polygon fill="#afeeee" stroke="black" points="943.04,-219 855.48,-219 832.96,-183 920.52,-183 943.04,-219"/>
<text text-anchor="middle" x="888" y="-197.3" font-family="DejaVu Sans Mono" font-size="14.00">input</text>
</g>
<!-- call -->
<g id="node15" class="node">
<title>call</title>
<polygon fill="#e552ff" stroke="black" points="915,-152 873,-152 873,-156 861,-156 861,-116 915,-116 915,-152"/>
<polyline fill="none" stroke="black" points="861,-152 873,-152 "/>
<text text-anchor="middle" x="888" y="-130.3" font-family="DejaVu Sans Mono" font-size="14.00">call</text>
</g>
<!-- input&#45;&gt;call -->
<!-- default -->
<g id="node11" class="node">
<title>default</title>
<polygon fill="#fffb81" stroke="black" points="789,-152 715,-152 715,-116 789,-116 789,-152"/>
<text text-anchor="middle" x="752" y="-130.3" font-family="DejaVu Sans Mono" font-size="14.00">default</text>
</g>
<!-- if -->
<g id="node12" class="node">
<title>if</title>
<polygon fill="#ff6752" stroke="black" points="888,-302.5 857.83,-284.5 888,-266.5 918.17,-284.5 888,-302.5"/>
<text text-anchor="middle" x="888" y="-280.8" font-family="DejaVu Sans Mono" font-size="14.00">if</text>
</g>
<!-- if&#45;&gt;input -->
<!-- for -->
<g id="node13" class="node">
<title>for</title>
<polygon fill="#ffbe52" stroke="black" points="838.54,-284.5 823.27,-302.5 792.73,-302.5 777.46,-284.5 792.73,-266.5 823.27,-266.5 838.54,-284.5"/>
<text text-anchor="middle" x="808" y="-280.8" font-family="DejaVu Sans Mono" font-size="14.00">for</text>
</g>
<!-- return -->
<g id="node16" class="node">
<title>return</title>
<polygon fill="#98fb98" stroke="black" points="814.79,-219 714.91,-219 689.21,-183 789.09,-183 814.79,-219"/>
<text text-anchor="middle" x="752" y="-197.3" font-family="DejaVu Sans Mono" font-size="14.00">return</text>
</g>
<!-- for&#45;&gt;return -->
<!-- while -->
<g id="node14" class="node">
<title>while</title>
<polygon fill="#ffbe52" stroke="black" points="759.56,-284.5 737.78,-302.5 694.22,-302.5 672.44,-284.5 694.22,-266.5 737.78,-266.5 759.56,-284.5"/>
<text text-anchor="middle" x="716" y="-280.8" font-family="DejaVu Sans Mono" font-size="14.00">while</text>
</g>
<!-- return&#45;&gt;default -->
<!-- try -->
<g id="node17" class="node">
<title>try</title>
<polygon fill="orange" stroke="black" points="617,-302.5 579.13,-284.5 617,-266.5 654.87,-284.5 617,-302.5"/>
<polyline fill="none" stroke="black" points="589.97,-289.65 589.97,-279.35 "/>
<polyline fill="none" stroke="black" points="606.16,-271.65 627.84,-271.65 "/>
<polyline fill="none" stroke="black" points="644.03,-279.35 644.03,-289.65 "/>
<polyline fill="none" stroke="black" points="627.84,-297.35 606.16,-297.35 "/>
<text text-anchor="middle" x="617" y="-280.8" font-family="DejaVu Sans Mono" font-size="14.00">try</text>
</g>
<!-- raise -->
<g id="node18" class="node">
<title>raise</title>
<polygon fill="#98fb98" stroke="black" points="671.69,-206.56 625,-219 578.31,-206.56 578.35,-186.44 671.65,-186.44 671.69,-206.56"/>
<text text-anchor="middle" x="625" y="-197.3" font-family="DejaVu Sans Mono" font-size="14.00">raise</text>
</g>
<!-- try&#45;&gt;raise -->
</g>
</svg>
