<?xml version="1.0" encoding="UTF-8" standalone="no"?>
<!DOCTYPE svg PUBLIC "-//W3C//DTD SVG 1.1//EN"
 "http://www.w3.org/Graphics/SVG/1.1/DTD/svg11.dtd">
<!-- Generated by graphviz version 2.43.0 (0)
 -->
<!-- Title: ObjectGraph Pages: 1 -->
<svg width="325pt" height="490pt"
 viewBox="0.00 0.00 325.00 490.00" xmlns="http://www.w3.org/2000/svg" xmlns:xlink="http://www.w3.org/1999/xlink">
<g id="graph0" class="graph" transform="scale(1 1) rotate(0) translate(4 486)">
<title>ObjectGraph</title>
<polygon fill="white" stroke="transparent" points="-4,4 -4,-486 321,-486 321,4 -4,4"/>
<!-- o138476530980928 -->
<g id="node1" class="node">
<title>o138476530980928</title>
<polygon fill="#ffffff" stroke="black" points="317,-482 0,-482 0,-444 317,-444 317,-482"/>
<text text-anchor="middle" x="158.5" y="-466.8" font-family="Times,serif" font-size="14.00" fill="red">Intern</text>
<text text-anchor="middle" x="158.5" y="-451.8" font-family="Times,serif" font-size="14.00" fill="red">Intern(data=(Intern(data=(Intern(data=(I</text>
</g>
<!-- o138476524260096 -->
<g id="node2" class="node">
<title>o138476524260096</title>
<polygon fill="#ededed" stroke="black" points="193.5,-408 123.5,-408 123.5,-370 193.5,-370 193.5,-408"/>
<text text-anchor="middle" x="158.5" y="-392.8" font-family="Times,serif" font-size="14.00">tuple</text>
<text text-anchor="middle" x="158.5" y="-377.8" font-family="Times,serif" font-size="14.00">3 items</text>
</g>
<!-- o138476530980928&#45;&gt;o138476524260096 -->
<g id="edge1" class="edge">
<title>o138476530980928&#45;&gt;o138476524260096</title>
<path fill="none" stroke="black" d="M158.5,-443.83C158.5,-436.13 158.5,-426.97 158.5,-418.42"/>
<polygon fill="black" stroke="black" points="162,-418.41 158.5,-408.41 155,-418.41 162,-418.41"/>
</g>
<!-- o138476530105600 -->
<g id="node3" class="node">
<title>o138476530105600</title>
<polygon fill="#dbdbdb" stroke="black" points="317,-334 0,-334 0,-296 317,-296 317,-334"/>
<text text-anchor="middle" x="158.5" y="-318.8" font-family="Times,serif" font-size="14.00">Intern</text>
<text text-anchor="middle" x="158.5" y="-303.8" font-family="Times,serif" font-size="14.00">Intern(data=(Intern(data=(Intern(data=()</text>
</g>
<!-- o138476524260096&#45;&gt;o138476530105600 -->
<g id="edge2" class="edge">
<title>o138476524260096&#45;&gt;o138476530105600</title>
<path fill="none" stroke="black" d="M146.6,-369.83C145.09,-362.13 144.65,-352.97 145.27,-344.42"/>
<polygon fill="black" stroke="black" points="148.75,-344.78 146.55,-334.41 141.81,-343.89 148.75,-344.78"/>
</g>
<!-- o138476524260096&#45;&gt;o138476530105600 -->
<g id="edge3" class="edge">
<title>o138476524260096&#45;&gt;o138476530105600</title>
<path fill="none" stroke="black" d="M158.5,-369.83C158.5,-362.13 158.5,-352.97 158.5,-344.42"/>
<polygon fill="black" stroke="black" points="162,-344.41 158.5,-334.41 155,-344.41 162,-344.41"/>
</g>
<!-- o138476524260096&#45;&gt;o138476530105600 -->
<g id="edge4" class="edge">
<title>o138476524260096&#45;&gt;o138476530105600</title>
<path fill="none" stroke="black" d="M170.4,-369.83C171.91,-362.13 172.35,-352.97 171.73,-344.42"/>
<polygon fill="black" stroke="black" points="175.19,-343.89 170.45,-334.41 168.25,-344.78 175.19,-343.89"/>
</g>
<!-- o138476527124336 -->
<g id="node4" class="node">
<title>o138476527124336</title>
<polygon fill="#c9c9c9" stroke="black" points="193.5,-260 123.5,-260 123.5,-222 193.5,-222 193.5,-260"/>
<text text-anchor="middle" x="158.5" y="-244.8" font-family="Times,serif" font-size="14.00">tuple</text>
<text text-anchor="middle" x="158.5" y="-229.8" font-family="Times,serif" font-size="14.00">1 items</text>
</g>
<!-- o138476530105600&#45;&gt;o138476527124336 -->
<g id="edge5" class="edge">
<title>o138476530105600&#45;&gt;o138476527124336</title>
<path fill="none" stroke="black" d="M158.5,-295.83C158.5,-288.13 158.5,-278.97 158.5,-270.42"/>
<polygon fill="black" stroke="black" points="162,-270.41 158.5,-260.41 155,-270.41 162,-270.41"/>
</g>
<!-- o138476530104304 -->
<g id="node5" class="node">
<title>o138476530104304</title>
<polygon fill="#b7b7b7" stroke="black" points="311,-186 6,-186 6,-148 311,-148 311,-186"/>
<text text-anchor="middle" x="158.5" y="-170.8" font-family="Times,serif" font-size="14.00">Intern</text>
<text text-anchor="middle" x="158.5" y="-155.8" font-family="Times,serif" font-size="14.00">Intern(data=(Intern(data=()), Intern(dat</text>
</g>
<!-- o138476527124336&#45;&gt;o138476530104304 -->
<g id="edge6" class="edge">
<title>o138476527124336&#45;&gt;o138476530104304</title>
<path fill="none" stroke="black" d="M158.5,-221.83C158.5,-214.13 158.5,-204.97 158.5,-196.42"/>
<polygon fill="black" stroke="black" points="162,-196.41 158.5,-186.41 155,-196.41 162,-196.41"/>
</g>
<!-- o138476524264896 -->
<g id="node6" class="node">
<title>o138476524264896</title>
<polygon fill="#a5a5a5" stroke="black" points="193.5,-112 123.5,-112 123.5,-74 193.5,-74 193.5,-112"/>
<text text-anchor="middle" x="158.5" y="-96.8" font-family="Times,serif" font-size="14.00">tuple</text>
<text text-anchor="middle" x="158.5" y="-81.8" font-family="Times,serif" font-size="14.00">2 items</text>
</g>
<!-- o138476530104304&#45;&gt;o138476524264896 -->
<g id="edge7" class="edge">
<title>o138476530104304&#45;&gt;o138476524264896</title>
<path fill="none" stroke="black" d="M158.5,-147.83C158.5,-140.13 158.5,-130.97 158.5,-122.42"/>
<polygon fill="black" stroke="black" points="162,-122.41 158.5,-112.41 155,-122.41 162,-122.41"/>
</g>
<!-- o138476529986064 -->
<g id="node7" class="node">
<title>o138476529986064</title>
<polygon fill="#939393" stroke="black" points="221,-38 96,-38 96,0 221,0 221,-38"/>
<text text-anchor="middle" x="158.5" y="-22.8" font-family="Times,serif" font-size="14.00">Intern</text>
<text text-anchor="middle" x="158.5" y="-7.8" font-family="Times,serif" font-size="14.00">Intern(data=())</text>
</g>
<!-- o138476524264896&#45;&gt;o138476529986064 -->
<g id="edge8" class="edge">
<title>o138476524264896&#45;&gt;o138476529986064</title>
<path fill="none" stroke="black" d="M152.55,-73.83C151.8,-66.13 151.58,-56.97 151.88,-48.42"/>
<polygon fill="black" stroke="black" points="155.38,-48.62 152.52,-38.41 148.39,-48.17 155.38,-48.62"/>
</g>
<!-- o138476524264896&#45;&gt;o138476529986064 -->
<g id="edge9" class="edge">
<title>o138476524264896&#45;&gt;o138476529986064</title>
<path fill="none" stroke="black" d="M164.45,-73.83C165.2,-66.13 165.42,-56.97 165.12,-48.42"/>
<polygon fill="black" stroke="black" points="168.61,-48.17 164.48,-38.41 161.62,-48.62 168.61,-48.17"/>
</g>
</g>
</svg>
