<?xml version="1.0" encoding="UTF-8" standalone="no"?>
<!DOCTYPE svg PUBLIC "-//W3C//DTD SVG 1.1//EN"
 "http://www.w3.org/Graphics/SVG/1.1/DTD/svg11.dtd">
<!-- Generated by graphviz version 2.43.0 (0)
 -->
<!-- Title: ObjectGraph Pages: 1 -->
<svg width="206pt" height="120pt"
 viewBox="0.00 0.00 206.00 120.00" xmlns="http://www.w3.org/2000/svg" xmlns:xlink="http://www.w3.org/1999/xlink">
<g id="graph0" class="graph" transform="scale(1 1) rotate(0) translate(4 116)">
<title>ObjectGraph</title>
<polygon fill="white" stroke="transparent" points="-4,4 -4,-116 202,-116 202,4 -4,4"/>
<!-- o138476525167872 -->
<g id="node1" class="node">
<title>o138476525167872</title>
<polygon fill="#ffffff" stroke="black" points="134,-112 64,-112 64,-74 134,-74 134,-112"/>
<text text-anchor="middle" x="99" y="-96.8" font-family="Times,serif" font-size="14.00" fill="red">tuple</text>
<text text-anchor="middle" x="99" y="-81.8" font-family="Times,serif" font-size="14.00" fill="red">3 items</text>
</g>
<!-- o138476597805360 -->
<g id="node2" class="node">
<title>o138476597805360</title>
<polygon fill="#c3c3c3" stroke="black" points="54,-38 0,-38 0,0 54,0 54,-38"/>
<text text-anchor="middle" x="27" y="-22.8" font-family="Times,serif" font-size="14.00">int</text>
<text text-anchor="middle" x="27" y="-7.8" font-family="Times,serif" font-size="14.00">3</text>
</g>
<!-- o138476525167872&#45;&gt;o138476597805360 -->
<g id="edge1" class="edge">
<title>o138476525167872&#45;&gt;o138476597805360</title>
<path fill="none" stroke="black" d="M74.88,-73.83C65.59,-65.37 55.19,-55.15 46.39,-45.9"/>
<polygon fill="black" stroke="black" points="48.81,-43.36 39.44,-38.41 43.68,-48.12 48.81,-43.36"/>
</g>
<!-- o138476525167872&#45;&gt;o138476597805360 -->
<g id="edge4" class="edge">
<title>o138476525167872&#45;&gt;o138476597805360</title>
<path fill="none" stroke="black" d="M86.78,-73.83C78.93,-65.13 68.55,-54.58 58.6,-45.13"/>
<polygon fill="black" stroke="black" points="60.82,-42.41 51.11,-38.16 56.05,-47.54 60.82,-42.41"/>
</g>
<!-- o138476597805328 -->
<g id="node3" class="node">
<title>o138476597805328</title>
<polygon fill="#c3c3c3" stroke="black" points="126,-38 72,-38 72,0 126,0 126,-38"/>
<text text-anchor="middle" x="99" y="-22.8" font-family="Times,serif" font-size="14.00">int</text>
<text text-anchor="middle" x="99" y="-7.8" font-family="Times,serif" font-size="14.00">2</text>
</g>
<!-- o138476525167872&#45;&gt;o138476597805328 -->
<g id="edge2" class="edge">
<title>o138476525167872&#45;&gt;o138476597805328</title>
<path fill="none" stroke="black" d="M93.05,-73.83C92.3,-66.13 92.08,-56.97 92.38,-48.42"/>
<polygon fill="black" stroke="black" points="95.88,-48.62 93.02,-38.41 88.89,-48.17 95.88,-48.62"/>
</g>
<!-- o138476525167872&#45;&gt;o138476597805328 -->
<g id="edge5" class="edge">
<title>o138476525167872&#45;&gt;o138476597805328</title>
<path fill="none" stroke="black" d="M104.95,-73.83C105.7,-66.13 105.92,-56.97 105.62,-48.42"/>
<polygon fill="black" stroke="black" points="109.11,-48.17 104.98,-38.41 102.12,-48.62 109.11,-48.17"/>
</g>
<!-- o138476597805296 -->
<g id="node4" class="node">
<title>o138476597805296</title>
<polygon fill="#c3c3c3" stroke="black" points="198,-38 144,-38 144,0 198,0 198,-38"/>
<text text-anchor="middle" x="171" y="-22.8" font-family="Times,serif" font-size="14.00">int</text>
<text text-anchor="middle" x="171" y="-7.8" font-family="Times,serif" font-size="14.00">1</text>
</g>
<!-- o138476525167872&#45;&gt;o138476597805296 -->
<g id="edge3" class="edge">
<title>o138476525167872&#45;&gt;o138476597805296</title>
<path fill="none" stroke="black" d="M111.22,-73.83C119.07,-65.13 129.45,-54.58 139.4,-45.13"/>
<polygon fill="black" stroke="black" points="141.95,-47.54 146.89,-38.16 137.18,-42.41 141.95,-47.54"/>
</g>
<!-- o138476525167872&#45;&gt;o138476597805296 -->
<g id="edge6" class="edge">
<title>o138476525167872&#45;&gt;o138476597805296</title>
<path fill="none" stroke="black" d="M123.12,-73.83C132.41,-65.37 142.81,-55.15 151.61,-45.9"/>
<polygon fill="black" stroke="black" points="154.32,-48.12 158.56,-38.41 149.19,-43.36 154.32,-48.12"/>
</g>
</g>
</svg>
