<?xml version="1.0" encoding="UTF-8" standalone="no"?>
<!DOCTYPE svg PUBLIC "-//W3C//DTD SVG 1.1//EN"
 "http://www.w3.org/Graphics/SVG/1.1/DTD/svg11.dtd">
<!-- Generated by graphviz version 2.43.20190912.0211 (20190912.0211)
 -->
<!-- Title: egraph Pages: 1 -->
<svg width="1440pt" height="292pt"
 viewBox="0.00 0.00 1439.89 292.00" xmlns="http://www.w3.org/2000/svg" xmlns:xlink="http://www.w3.org/1999/xlink">
<g id="graph0" class="graph" transform="scale(1 1) rotate(0) translate(4 288)">
<title>egraph</title>
<polygon fill="white" stroke="transparent" points="-4,4 -4,-288 1435.89,-288 1435.89,4 -4,4"/>
<g id="clust1" class="cluster">
<title>cluster_259</title>
<path fill="none" stroke="black" stroke-dasharray="1,5" d="M760.47,-224C760.47,-224 1044.47,-224 1044.47,-224 1050.47,-224 1056.47,-230 1056.47,-236 1056.47,-236 1056.47,-264 1056.47,-264 1056.47,-270 1050.47,-276 1044.47,-276 1044.47,-276 760.47,-276 760.47,-276 754.47,-276 748.47,-270 748.47,-264 748.47,-264 748.47,-236 748.47,-236 748.47,-230 754.47,-224 760.47,-224"/>
</g>
<g id="clust2" class="cluster">
<title>cluster_131</title>
<path fill="none" stroke="black" stroke-dasharray="1,5" d="M369.47,-152C369.47,-152 581.47,-152 581.47,-152 587.47,-152 593.47,-158 593.47,-164 593.47,-164 593.47,-192 593.47,-192 593.47,-198 587.47,-204 581.47,-204 581.47,-204 369.47,-204 369.47,-204 363.47,-204 357.47,-198 357.47,-192 357.47,-192 357.47,-164 357.47,-164 357.47,-158 363.47,-152 369.47,-152"/>
</g>
<g id="clust3" class="cluster">
<title>cluster_18</title>
<path fill="none" stroke="black" stroke-dasharray="1,5" d="M357.47,-80C357.47,-80 497.47,-80 497.47,-80 503.47,-80 509.47,-86 509.47,-92 509.47,-92 509.47,-120 509.47,-120 509.47,-126 503.47,-132 497.47,-132 497.47,-132 357.47,-132 357.47,-132 351.47,-132 345.47,-126 345.47,-120 345.47,-120 345.47,-92 345.47,-92 345.47,-86 351.47,-80 357.47,-80"/>
</g>
<g id="clust4" class="cluster">
<title>cluster_15</title>
<path fill="none" stroke="black" stroke-dasharray="1,5" d="M733.47,-8C733.47,-8 801.47,-8 801.47,-8 807.47,-8 813.47,-14 813.47,-20 813.47,-20 813.47,-48 813.47,-48 813.47,-54 807.47,-60 801.47,-60 801.47,-60 733.47,-60 733.47,-60 727.47,-60 721.47,-54 721.47,-48 721.47,-48 721.47,-20 721.47,-20 721.47,-14 727.47,-8 733.47,-8"/>
</g>
<g id="clust5" class="cluster">
<title>cluster_14</title>
<path fill="none" stroke="black" stroke-dasharray="1,5" d="M128.47,-8C128.47,-8 196.47,-8 196.47,-8 202.47,-8 208.47,-14 208.47,-20 208.47,-20 208.47,-48 208.47,-48 208.47,-54 202.47,-60 196.47,-60 196.47,-60 128.47,-60 128.47,-60 122.47,-60 116.47,-54 116.47,-48 116.47,-48 116.47,-20 116.47,-20 116.47,-14 122.47,-8 128.47,-8"/>
</g>
<g id="clust6" class="cluster">
<title>cluster_16</title>
<path fill="none" stroke="black" stroke-dasharray="1,5" d="M368.47,-8C368.47,-8 436.47,-8 436.47,-8 442.47,-8 448.47,-14 448.47,-20 448.47,-20 448.47,-48 448.47,-48 448.47,-54 442.47,-60 436.47,-60 436.47,-60 368.47,-60 368.47,-60 362.47,-60 356.47,-54 356.47,-48 356.47,-48 356.47,-20 356.47,-20 356.47,-14 362.47,-8 368.47,-8"/>
</g>
<g id="clust7" class="cluster">
<title>cluster_17</title>
<path fill="none" stroke="black" stroke-dasharray="1,5" d="M1168.47,-8C1168.47,-8 1236.47,-8 1236.47,-8 1242.47,-8 1248.47,-14 1248.47,-20 1248.47,-20 1248.47,-48 1248.47,-48 1248.47,-54 1242.47,-60 1236.47,-60 1236.47,-60 1168.47,-60 1168.47,-60 1162.47,-60 1156.47,-54 1156.47,-48 1156.47,-48 1156.47,-20 1156.47,-20 1156.47,-14 1162.47,-8 1168.47,-8"/>
</g>
<g id="clust8" class="cluster">
<title>cluster_316</title>
<path fill="none" stroke="black" stroke-dasharray="1,5" d="M857.47,-152C857.47,-152 1069.47,-152 1069.47,-152 1075.47,-152 1081.47,-158 1081.47,-164 1081.47,-164 1081.47,-192 1081.47,-192 1081.47,-198 1075.47,-204 1069.47,-204 1069.47,-204 857.47,-204 857.47,-204 851.47,-204 845.47,-198 845.47,-192 845.47,-192 845.47,-164 845.47,-164 845.47,-158 851.47,-152 857.47,-152"/>
</g>
<g id="clust9" class="cluster">
<title>cluster_51</title>
<path fill="none" stroke="black" stroke-dasharray="1,5" d="M529.47,-80C529.47,-80 669.47,-80 669.47,-80 675.47,-80 681.47,-86 681.47,-92 681.47,-92 681.47,-120 681.47,-120 681.47,-126 675.47,-132 669.47,-132 669.47,-132 529.47,-132 529.47,-132 523.47,-132 517.47,-126 517.47,-120 517.47,-120 517.47,-92 517.47,-92 517.47,-86 523.47,-80 529.47,-80"/>
</g>
<g id="clust10" class="cluster">
<title>cluster_319</title>
<path fill="none" stroke="black" stroke-dasharray="1,5" d="M1101.47,-152C1101.47,-152 1313.47,-152 1313.47,-152 1319.47,-152 1325.47,-158 1325.47,-164 1325.47,-164 1325.47,-192 1325.47,-192 1325.47,-198 1319.47,-204 1313.47,-204 1313.47,-204 1101.47,-204 1101.47,-204 1095.47,-204 1089.47,-198 1089.47,-192 1089.47,-192 1089.47,-164 1089.47,-164 1089.47,-158 1095.47,-152 1101.47,-152"/>
</g>
<g id="clust11" class="cluster">
<title>cluster_318</title>
<path fill="none" stroke="black" stroke-dasharray="1,5" d="M1179.47,-80C1179.47,-80 1319.47,-80 1319.47,-80 1325.47,-80 1331.47,-86 1331.47,-92 1331.47,-92 1331.47,-120 1331.47,-120 1331.47,-126 1325.47,-132 1319.47,-132 1319.47,-132 1179.47,-132 1179.47,-132 1173.47,-132 1167.47,-126 1167.47,-120 1167.47,-120 1167.47,-92 1167.47,-92 1167.47,-86 1173.47,-80 1179.47,-80"/>
</g>
<g id="clust12" class="cluster">
<title>cluster_332</title>
<path fill="none" stroke="black" stroke-dasharray="1,5" d="M77.47,-80C77.47,-80 217.47,-80 217.47,-80 223.47,-80 229.47,-86 229.47,-92 229.47,-92 229.47,-120 229.47,-120 229.47,-126 223.47,-132 217.47,-132 217.47,-132 77.47,-132 77.47,-132 71.47,-132 65.47,-126 65.47,-120 65.47,-120 65.47,-92 65.47,-92 65.47,-86 71.47,-80 77.47,-80"/>
</g>
<g id="clust13" class="cluster">
<title>cluster_309</title>
<path fill="none" stroke="black" stroke-dasharray="1,5" d="M613.47,-152C613.47,-152 825.47,-152 825.47,-152 831.47,-152 837.47,-158 837.47,-164 837.47,-164 837.47,-192 837.47,-192 837.47,-198 831.47,-204 825.47,-204 825.47,-204 613.47,-204 613.47,-204 607.47,-204 601.47,-198 601.47,-192 601.47,-192 601.47,-164 601.47,-164 601.47,-158 607.47,-152 613.47,-152"/>
</g>
<g id="clust14" class="cluster">
<title>cluster_313</title>
<path fill="none" stroke="black" stroke-dasharray="1,5" d="M733.47,-80C733.47,-80 873.47,-80 873.47,-80 879.47,-80 885.47,-86 885.47,-92 885.47,-92 885.47,-120 885.47,-120 885.47,-126 879.47,-132 873.47,-132 873.47,-132 733.47,-132 733.47,-132 727.47,-132 721.47,-126 721.47,-120 721.47,-120 721.47,-92 721.47,-92 721.47,-86 727.47,-80 733.47,-80"/>
</g>
<g id="clust15" class="cluster">
<title>cluster_308</title>
<path fill="none" stroke="black" stroke-dasharray="1,5" d="M975.47,-80C975.47,-80 1115.47,-80 1115.47,-80 1121.47,-80 1127.47,-86 1127.47,-92 1127.47,-92 1127.47,-120 1127.47,-120 1127.47,-126 1121.47,-132 1115.47,-132 1115.47,-132 975.47,-132 975.47,-132 969.47,-132 963.47,-126 963.47,-120 963.47,-120 963.47,-92 963.47,-92 963.47,-86 969.47,-80 975.47,-80"/>
</g>
<!-- 259_+_131_17 -->
<g id="node1" class="node">
<title>259_+_131_17</title>
<path fill="none" stroke="black" d="M964.47,-268C964.47,-268 934.47,-268 934.47,-268 928.47,-268 922.47,-262 922.47,-256 922.47,-256 922.47,-244 922.47,-244 922.47,-238 928.47,-232 934.47,-232 934.47,-232 964.47,-232 964.47,-232 970.47,-232 976.47,-238 976.47,-244 976.47,-244 976.47,-256 976.47,-256 976.47,-262 970.47,-268 964.47,-268"/>
<text text-anchor="middle" x="949.47" y="-246.3" font-family="Times,serif" font-size="14.00">+</text>
</g>
<!-- e_rep_131 -->
<!-- 259_+_131_17&#45;&gt;e_rep_131 -->
<g id="edge1" class="edge">
<title>259_+_131_17&#45;&gt;e_rep_131</title>
<path fill="none" stroke="black" d="M928.81,-231.87C924.03,-228.72 918.78,-225.85 913.47,-224 847.02,-200.86 657.01,-241.48 597.47,-204 592.31,-200.75 588.88,-194.89 586.71,-189.66"/>
<polygon fill="black" stroke="black" points="589.95,-188.3 583.62,-179.8 583.27,-190.38 589.95,-188.3"/>
</g>
<!-- e_rep_17 -->
<!-- 259_+_131_17&#45;&gt;e_rep_17 -->
<g id="edge2" class="edge">
<title>259_+_131_17&#45;&gt;e_rep_17</title>
<path fill="none" stroke="black" d="M970.11,-231.85C974.89,-228.7 980.14,-225.84 985.47,-224 1130.22,-174.01 1186.05,-257.73 1329.47,-204 1378.42,-185.66 1399.45,-178.93 1422.47,-132 1432.64,-111.25 1436.73,-98.18 1422.47,-80 1400.86,-52.47 1288.02,-39.62 1250.56,-36.06"/>
<polygon fill="black" stroke="black" points="1250.52,-32.54 1240.25,-35.14 1249.9,-39.51 1250.52,-32.54"/>
</g>
<!-- 259_+_309_15 -->
<g id="node4" class="node">
<title>259_+_309_15</title>
<path fill="none" stroke="black" d="M1036.47,-268C1036.47,-268 1006.47,-268 1006.47,-268 1000.47,-268 994.47,-262 994.47,-256 994.47,-256 994.47,-244 994.47,-244 994.47,-238 1000.47,-232 1006.47,-232 1006.47,-232 1036.47,-232 1036.47,-232 1042.47,-232 1048.47,-238 1048.47,-244 1048.47,-244 1048.47,-256 1048.47,-256 1048.47,-262 1042.47,-268 1036.47,-268"/>
<text text-anchor="middle" x="1021.47" y="-246.3" font-family="Times,serif" font-size="14.00">+</text>
</g>
<!-- e_rep_309 -->
<!-- 259_+_309_15&#45;&gt;e_rep_309 -->
<g id="edge3" class="edge">
<title>259_+_309_15&#45;&gt;e_rep_309</title>
<path fill="none" stroke="black" d="M1000.31,-231.91C995.65,-228.84 990.57,-225.99 985.47,-224 925.28,-200.48 894.82,-240.44 841.47,-204 836.61,-200.69 833.26,-195.11 831.05,-190.06"/>
<polygon fill="black" stroke="black" points="834.24,-188.56 827.73,-180.2 827.6,-190.79 834.24,-188.56"/>
</g>
<!-- e_rep_15 -->
<!-- 259_+_309_15&#45;&gt;e_rep_15 -->
<g id="edge4" class="edge">
<title>259_+_309_15&#45;&gt;e_rep_15</title>
<path fill="none" stroke="black" d="M1048.75,-249.16C1116.84,-248.94 1291.53,-244.36 1329.47,-204 1367.25,-163.8 1372.8,-120.63 1335.47,-80 1326.33,-70.06 893.18,-40.94 815.37,-35.78"/>
<polygon fill="black" stroke="black" points="815.17,-32.26 804.96,-35.1 814.71,-39.25 815.17,-32.26"/>
</g>
<!-- 259_+_316_16 -->
<g id="node7" class="node">
<title>259_+_316_16</title>
<path fill="none" stroke="black" d="M892.47,-268C892.47,-268 862.47,-268 862.47,-268 856.47,-268 850.47,-262 850.47,-256 850.47,-256 850.47,-244 850.47,-244 850.47,-238 856.47,-232 862.47,-232 862.47,-232 892.47,-232 892.47,-232 898.47,-232 904.47,-238 904.47,-244 904.47,-244 904.47,-256 904.47,-256 904.47,-262 898.47,-268 892.47,-268"/>
<text text-anchor="middle" x="877.47" y="-246.3" font-family="Times,serif" font-size="14.00">+</text>
</g>
<!-- e_rep_316 -->
<!-- 259_+_316_16&#45;&gt;e_rep_316 -->
<g id="edge5" class="edge">
<title>259_+_316_16&#45;&gt;e_rep_316</title>
<path fill="none" stroke="black" d="M898.61,-231.9C903.28,-228.83 908.36,-225.99 913.47,-224 974.91,-200.09 1007.81,-243.68 1060.47,-204 1064.94,-200.63 1067.63,-195.05 1069.22,-190.01"/>
<polygon fill="black" stroke="black" points="1072.65,-190.7 1071.34,-180.19 1065.81,-189.23 1072.65,-190.7"/>
</g>
<!-- e_rep_16 -->
<!-- 259_+_316_16&#45;&gt;e_rep_16 -->
<g id="edge6" class="edge">
<title>259_+_316_16&#45;&gt;e_rep_16</title>
<path fill="none" stroke="black" d="M856.84,-231.78C852.06,-228.64 846.8,-225.79 841.47,-224 676.01,-168.44 169.1,-269.4 61.47,-132 47.21,-113.81 45.58,-96.78 61.47,-80 89.47,-50.43 393.98,-83.18 427.47,-60 432.16,-56.75 434.87,-51.04 436.42,-45.89"/>
<polygon fill="black" stroke="black" points="439.87,-46.48 438.38,-35.99 433.01,-45.12 439.87,-46.48"/>
</g>
<!-- 259_+_319_14 -->
<g id="node10" class="node">
<title>259_+_319_14</title>
<path fill="none" stroke="black" d="M820.47,-268C820.47,-268 790.47,-268 790.47,-268 784.47,-268 778.47,-262 778.47,-256 778.47,-256 778.47,-244 778.47,-244 778.47,-238 784.47,-232 790.47,-232 790.47,-232 820.47,-232 820.47,-232 826.47,-232 832.47,-238 832.47,-244 832.47,-244 832.47,-256 832.47,-256 832.47,-262 826.47,-268 820.47,-268"/>
<text text-anchor="middle" x="805.47" y="-246.3" font-family="Times,serif" font-size="14.00">+</text>
</g>
<!-- e_rep_319 -->
<!-- 259_+_319_14&#45;&gt;e_rep_319 -->
<g id="edge7" class="edge">
<title>259_+_319_14&#45;&gt;e_rep_319</title>
<path fill="none" stroke="black" d="M826.09,-231.79C830.87,-228.65 836.13,-225.8 841.47,-224 890.26,-207.55 1261.96,-233.06 1304.47,-204 1309.17,-200.78 1311.89,-195.06 1313.44,-189.91"/>
<polygon fill="black" stroke="black" points="1316.89,-190.48 1315.38,-179.99 1310.02,-189.13 1316.89,-190.48"/>
</g>
<!-- e_rep_14 -->
<!-- 259_+_319_14&#45;&gt;e_rep_14 -->
<g id="edge8" class="edge">
<title>259_+_319_14&#45;&gt;e_rep_14</title>
<path fill="none" stroke="black" d="M785.25,-231.98C780.36,-228.75 774.96,-225.81 769.47,-224 696.61,-200.02 148.97,-236.43 79.47,-204 23.26,-177.78 -25.78,-126.32 15.47,-80 41.05,-51.26 156.51,-82.86 187.47,-60 191.97,-56.67 194.66,-51.09 196.25,-46.05"/>
<polygon fill="black" stroke="black" points="199.69,-46.7 198.35,-36.19 192.84,-45.25 199.69,-46.7"/>
</g>
<!-- e_rep_259 -->
<!-- 131_+_18_16 -->
<g id="node14" class="node">
<title>131_+_18_16</title>
<path fill="none" stroke="black" d="M407.47,-196C407.47,-196 377.47,-196 377.47,-196 371.47,-196 365.47,-190 365.47,-184 365.47,-184 365.47,-172 365.47,-172 365.47,-166 371.47,-160 377.47,-160 377.47,-160 407.47,-160 407.47,-160 413.47,-160 419.47,-166 419.47,-172 419.47,-172 419.47,-184 419.47,-184 419.47,-190 413.47,-196 407.47,-196"/>
<text text-anchor="middle" x="392.47" y="-174.3" font-family="Times,serif" font-size="14.00">+</text>
</g>
<!-- 131_+_18_16&#45;&gt;e_rep_16 -->
<g id="edge10" class="edge">
<title>131_+_18_16&#45;&gt;e_rep_16</title>
<path fill="none" stroke="black" d="M365.08,-169.75C346.37,-163.22 322.97,-151.55 311.47,-132 299.74,-112.08 296.58,-97.68 311.47,-80 345.17,-39.99 386.25,-92.22 427.47,-60 431.88,-56.55 434.56,-50.96 436.17,-45.94"/>
<polygon fill="black" stroke="black" points="439.59,-46.7 438.33,-36.18 432.75,-45.18 439.59,-46.7"/>
</g>
<!-- e_rep_18 -->
<!-- 131_+_18_16&#45;&gt;e_rep_18 -->
<g id="edge9" class="edge">
<title>131_+_18_16&#45;&gt;e_rep_18</title>
<path fill="none" stroke="black" d="M415.1,-159.85C419.41,-157 423.97,-154.25 428.47,-152 453.6,-139.41 467.69,-150.93 488.47,-132 492.49,-128.33 495.11,-122.93 496.79,-118.09"/>
<polygon fill="black" stroke="black" points="500.25,-118.69 499.3,-108.14 493.46,-116.98 500.25,-118.69"/>
</g>
<!-- 131_+_332_15 -->
<g id="node16" class="node">
<title>131_+_332_15</title>
<path fill="none" stroke="black" d="M551.47,-196C551.47,-196 521.47,-196 521.47,-196 515.47,-196 509.47,-190 509.47,-184 509.47,-184 509.47,-172 509.47,-172 509.47,-166 515.47,-160 521.47,-160 521.47,-160 551.47,-160 551.47,-160 557.47,-160 563.47,-166 563.47,-172 563.47,-172 563.47,-184 563.47,-184 563.47,-190 557.47,-196 551.47,-196"/>
<text text-anchor="middle" x="536.47" y="-174.3" font-family="Times,serif" font-size="14.00">+</text>
</g>
<!-- 131_+_332_15&#45;&gt;e_rep_15 -->
<g id="edge12" class="edge">
<title>131_+_332_15&#45;&gt;e_rep_15</title>
<path fill="none" stroke="black" d="M558.06,-159.8C562.62,-156.82 567.54,-154.03 572.47,-152 619.62,-132.56 643.29,-160.68 685.47,-132 707.91,-116.74 695.7,-96.2 717.47,-80 745.14,-59.4 766.27,-82.45 792.47,-60 796.6,-56.46 799.23,-51.07 800.89,-46.2"/>
<polygon fill="black" stroke="black" points="804.37,-46.69 803.31,-36.15 797.56,-45.05 804.37,-46.69"/>
</g>
<!-- e_rep_332 -->
<!-- 131_+_332_15&#45;&gt;e_rep_332 -->
<g id="edge11" class="edge">
<title>131_+_332_15&#45;&gt;e_rep_332</title>
<path fill="none" stroke="black" d="M515.8,-159.92C511.02,-156.77 505.77,-153.88 500.47,-152 444.81,-132.24 286.17,-162.28 235.47,-132 229.89,-128.67 225.93,-122.56 223.34,-117.22"/>
<polygon fill="black" stroke="black" points="226.57,-115.86 219.69,-107.8 220.04,-118.39 226.57,-115.86"/>
</g>
<!-- 131_+_51_14 -->
<g id="node18" class="node">
<title>131_+_51_14</title>
<path fill="none" stroke="black" d="M479.47,-196C479.47,-196 449.47,-196 449.47,-196 443.47,-196 437.47,-190 437.47,-184 437.47,-184 437.47,-172 437.47,-172 437.47,-166 443.47,-160 449.47,-160 449.47,-160 479.47,-160 479.47,-160 485.47,-160 491.47,-166 491.47,-172 491.47,-172 491.47,-184 491.47,-184 491.47,-190 485.47,-196 479.47,-196"/>
<text text-anchor="middle" x="464.47" y="-174.3" font-family="Times,serif" font-size="14.00">+</text>
</g>
<!-- 131_+_51_14&#45;&gt;e_rep_14 -->
<g id="edge14" class="edge">
<title>131_+_51_14&#45;&gt;e_rep_14</title>
<path fill="none" stroke="black" d="M443.83,-159.81C439.05,-156.67 433.79,-153.82 428.47,-152 386.66,-137.74 61.9,-164.01 31.47,-132 15.54,-115.25 16.2,-97.35 31.47,-80 77.64,-27.52 131.48,-101.85 187.47,-60 191.95,-56.65 194.64,-51.06 196.23,-46.03"/>
<polygon fill="black" stroke="black" points="199.67,-46.7 198.34,-36.19 192.82,-45.23 199.67,-46.7"/>
</g>
<!-- e_rep_51 -->
<!-- 131_+_51_14&#45;&gt;e_rep_51 -->
<g id="edge13" class="edge">
<title>131_+_51_14&#45;&gt;e_rep_51</title>
<path fill="none" stroke="black" d="M485.59,-159.86C490.26,-156.79 495.35,-153.96 500.47,-152 567.39,-126.37 603,-174.82 660.47,-132 664.96,-128.65 667.65,-123.07 669.24,-118.03"/>
<polygon fill="black" stroke="black" points="672.67,-118.7 671.34,-108.19 665.83,-117.24 672.67,-118.7"/>
</g>
<!-- 18_+_14_15 -->
<g id="node20" class="node">
<title>18_+_14_15</title>
<path fill="none" stroke="black" d="M467.47,-124C467.47,-124 437.47,-124 437.47,-124 431.47,-124 425.47,-118 425.47,-112 425.47,-112 425.47,-100 425.47,-100 425.47,-94 431.47,-88 437.47,-88 437.47,-88 467.47,-88 467.47,-88 473.47,-88 479.47,-94 479.47,-100 479.47,-100 479.47,-112 479.47,-112 479.47,-118 473.47,-124 467.47,-124"/>
<text text-anchor="middle" x="452.47" y="-102.3" font-family="Times,serif" font-size="14.00">+</text>
</g>
<!-- 18_+_14_15&#45;&gt;e_rep_15 -->
<g id="edge16" class="edge">
<title>18_+_14_15&#45;&gt;e_rep_15</title>
<path fill="none" stroke="black" d="M473.12,-87.88C477.9,-84.73 483.15,-81.86 488.47,-80 552.37,-57.66 737.01,-98.84 792.47,-60 797.14,-56.73 799.85,-51.01 801.41,-45.87"/>
<polygon fill="black" stroke="black" points="804.85,-46.48 803.38,-35.99 797.99,-45.11 804.85,-46.48"/>
</g>
<!-- 18_+_14_15&#45;&gt;e_rep_14 -->
<g id="edge15" class="edge">
<title>18_+_14_15&#45;&gt;e_rep_14</title>
<path fill="none" stroke="black" d="M430.82,-87.91C426.27,-84.92 421.36,-82.1 416.47,-80 378.11,-63.54 249.28,-42.82 209.96,-36.75"/>
<polygon fill="black" stroke="black" points="210.38,-33.27 199.96,-35.22 209.32,-40.19 210.38,-33.27"/>
</g>
<!-- 18_+_15_14 -->
<g id="node21" class="node">
<title>18_+_15_14</title>
<path fill="none" stroke="black" d="M395.47,-124C395.47,-124 365.47,-124 365.47,-124 359.47,-124 353.47,-118 353.47,-112 353.47,-112 353.47,-100 353.47,-100 353.47,-94 359.47,-88 365.47,-88 365.47,-88 395.47,-88 395.47,-88 401.47,-88 407.47,-94 407.47,-100 407.47,-100 407.47,-112 407.47,-112 407.47,-118 401.47,-124 395.47,-124"/>
<text text-anchor="middle" x="380.47" y="-102.3" font-family="Times,serif" font-size="14.00">+</text>
</g>
<!-- 18_+_15_14&#45;&gt;e_rep_15 -->
<g id="edge17" class="edge">
<title>18_+_15_14&#45;&gt;e_rep_15</title>
<path fill="none" stroke="black" d="M401.1,-87.83C405.88,-84.68 411.14,-81.82 416.47,-80 456.04,-66.44 758.05,-83.79 792.47,-60 797.16,-56.76 799.87,-51.04 801.43,-45.89"/>
<polygon fill="black" stroke="black" points="804.88,-46.48 803.38,-35.99 798.01,-45.12 804.88,-46.48"/>
</g>
<!-- 18_+_15_14&#45;&gt;e_rep_14 -->
<g id="edge18" class="edge">
<title>18_+_15_14&#45;&gt;e_rep_14</title>
<path fill="none" stroke="black" d="M353.22,-94.52C312.31,-78.79 236.87,-49.77 209.09,-39.09"/>
<polygon fill="black" stroke="black" points="210.24,-35.78 199.65,-35.45 207.72,-42.31 210.24,-35.78"/>
</g>
<!-- 15_x0_ -->
<g id="node22" class="node">
<title>15_x0_</title>
<path fill="none" stroke="black" d="M771.47,-52C771.47,-52 741.47,-52 741.47,-52 735.47,-52 729.47,-46 729.47,-40 729.47,-40 729.47,-28 729.47,-28 729.47,-22 735.47,-16 741.47,-16 741.47,-16 771.47,-16 771.47,-16 777.47,-16 783.47,-22 783.47,-28 783.47,-28 783.47,-40 783.47,-40 783.47,-46 777.47,-52 771.47,-52"/>
<text text-anchor="middle" x="756.47" y="-30.3" font-family="Times,serif" font-size="14.00">x0</text>
</g>
<!-- 14_x1_ -->
<g id="node23" class="node">
<title>14_x1_</title>
<path fill="none" stroke="black" d="M166.47,-52C166.47,-52 136.47,-52 136.47,-52 130.47,-52 124.47,-46 124.47,-40 124.47,-40 124.47,-28 124.47,-28 124.47,-22 130.47,-16 136.47,-16 136.47,-16 166.47,-16 166.47,-16 172.47,-16 178.47,-22 178.47,-28 178.47,-28 178.47,-40 178.47,-40 178.47,-46 172.47,-52 166.47,-52"/>
<text text-anchor="middle" x="151.47" y="-30.3" font-family="Times,serif" font-size="14.00">x1</text>
</g>
<!-- 16_x2_ -->
<g id="node24" class="node">
<title>16_x2_</title>
<path fill="none" stroke="black" d="M406.47,-52C406.47,-52 376.47,-52 376.47,-52 370.47,-52 364.47,-46 364.47,-40 364.47,-40 364.47,-28 364.47,-28 364.47,-22 370.47,-16 376.47,-16 376.47,-16 406.47,-16 406.47,-16 412.47,-16 418.47,-22 418.47,-28 418.47,-28 418.47,-40 418.47,-40 418.47,-46 412.47,-52 406.47,-52"/>
<text text-anchor="middle" x="391.47" y="-30.3" font-family="Times,serif" font-size="14.00">x2</text>
</g>
<!-- 17_x3_ -->
<g id="node25" class="node">
<title>17_x3_</title>
<path fill="none" stroke="black" d="M1206.47,-52C1206.47,-52 1176.47,-52 1176.47,-52 1170.47,-52 1164.47,-46 1164.47,-40 1164.47,-40 1164.47,-28 1164.47,-28 1164.47,-22 1170.47,-16 1176.47,-16 1176.47,-16 1206.47,-16 1206.47,-16 1212.47,-16 1218.47,-22 1218.47,-28 1218.47,-28 1218.47,-40 1218.47,-40 1218.47,-46 1212.47,-52 1206.47,-52"/>
<text text-anchor="middle" x="1191.47" y="-30.3" font-family="Times,serif" font-size="14.00">x3</text>
</g>
<!-- 316_+_18_17 -->
<g id="node26" class="node">
<title>316_+_18_17</title>
<path fill="none" stroke="black" d="M1039.47,-196C1039.47,-196 1009.47,-196 1009.47,-196 1003.47,-196 997.47,-190 997.47,-184 997.47,-184 997.47,-172 997.47,-172 997.47,-166 1003.47,-160 1009.47,-160 1009.47,-160 1039.47,-160 1039.47,-160 1045.47,-160 1051.47,-166 1051.47,-172 1051.47,-172 1051.47,-184 1051.47,-184 1051.47,-190 1045.47,-196 1039.47,-196"/>
<text text-anchor="middle" x="1024.47" y="-174.3" font-family="Times,serif" font-size="14.00">+</text>
</g>
<!-- 316_+_18_17&#45;&gt;e_rep_17 -->
<g id="edge20" class="edge">
<title>316_+_18_17&#45;&gt;e_rep_17</title>
<path fill="none" stroke="black" d="M1045.12,-159.88C1049.9,-156.73 1055.15,-153.86 1060.47,-152 1092.53,-140.79 1342.25,-156.79 1365.47,-132 1381.26,-115.13 1378.8,-98.87 1365.47,-80 1338.46,-41.78 1276.11,-35.82 1250.14,-35.03"/>
<polygon fill="black" stroke="black" points="1250.11,-31.53 1240.09,-34.96 1250.06,-38.53 1250.11,-31.53"/>
</g>
<!-- 316_+_18_17&#45;&gt;e_rep_18 -->
<g id="edge19" class="edge">
<title>316_+_18_17&#45;&gt;e_rep_18</title>
<path fill="none" stroke="black" d="M1003.84,-159.78C999.06,-156.64 993.8,-153.8 988.47,-152 938.4,-135.16 558.47,-159.66 513.47,-132 508.27,-128.81 504.85,-122.95 502.68,-117.7"/>
<polygon fill="black" stroke="black" points="505.92,-116.32 499.62,-107.8 499.23,-118.39 505.92,-116.32"/>
</g>
<!-- 316_+_318_14 -->
<g id="node27" class="node">
<title>316_+_318_14</title>
<path fill="none" stroke="black" d="M967.47,-196C967.47,-196 937.47,-196 937.47,-196 931.47,-196 925.47,-190 925.47,-184 925.47,-184 925.47,-172 925.47,-172 925.47,-166 931.47,-160 937.47,-160 937.47,-160 967.47,-160 967.47,-160 973.47,-160 979.47,-166 979.47,-172 979.47,-172 979.47,-184 979.47,-184 979.47,-190 973.47,-196 967.47,-196"/>
<text text-anchor="middle" x="952.47" y="-174.3" font-family="Times,serif" font-size="14.00">+</text>
</g>
<!-- 316_+_318_14&#45;&gt;e_rep_14 -->
<g id="edge22" class="edge">
<title>316_+_318_14&#45;&gt;e_rep_14</title>
<path fill="none" stroke="black" d="M931.85,-159.75C927.07,-156.61 921.81,-153.78 916.47,-152 795.14,-111.67 463.01,-171.66 341.47,-132 283.18,-112.98 226.82,-62.51 206.45,-42.92"/>
<polygon fill="black" stroke="black" points="208.84,-40.36 199.27,-35.83 203.93,-45.34 208.84,-40.36"/>
</g>
<!-- e_rep_318 -->
<!-- 316_+_318_14&#45;&gt;e_rep_318 -->
<g id="edge21" class="edge">
<title>316_+_318_14&#45;&gt;e_rep_318</title>
<path fill="none" stroke="black" d="M973.12,-159.86C977.89,-156.72 983.15,-153.85 988.47,-152 1056.18,-128.46 1251.67,-173.02 1310.47,-132 1315.14,-128.74 1317.85,-123.02 1319.41,-117.87"/>
<polygon fill="black" stroke="black" points="1322.86,-118.48 1321.38,-107.99 1316,-117.11 1322.86,-118.48"/>
</g>
<!-- 316_+_313_15 -->
<g id="node29" class="node">
<title>316_+_313_15</title>
<path fill="none" stroke="black" d="M895.47,-196C895.47,-196 865.47,-196 865.47,-196 859.47,-196 853.47,-190 853.47,-184 853.47,-184 853.47,-172 853.47,-172 853.47,-166 859.47,-160 865.47,-160 865.47,-160 895.47,-160 895.47,-160 901.47,-160 907.47,-166 907.47,-172 907.47,-172 907.47,-184 907.47,-184 907.47,-190 901.47,-196 895.47,-196"/>
<text text-anchor="middle" x="880.47" y="-174.3" font-family="Times,serif" font-size="14.00">+</text>
</g>
<!-- 316_+_313_15&#45;&gt;e_rep_15 -->
<g id="edge24" class="edge">
<title>316_+_313_15&#45;&gt;e_rep_15</title>
<path fill="none" stroke="black" d="M887.87,-159.84C895.5,-139.3 904.35,-104.6 889.47,-80 873.09,-52.96 834.54,-41.38 815.1,-37.13"/>
<polygon fill="black" stroke="black" points="815.53,-33.65 805.06,-35.23 814.23,-40.53 815.53,-33.65"/>
</g>
<!-- e_rep_313 -->
<!-- 316_+_313_15&#45;&gt;e_rep_313 -->
<g id="edge23" class="edge">
<title>316_+_313_15&#45;&gt;e_rep_313</title>
<path fill="none" stroke="black" d="M879.23,-159.7C878.3,-146.63 877.04,-129.11 876.25,-117.93"/>
<polygon fill="black" stroke="black" points="879.73,-117.53 875.52,-107.81 872.74,-118.03 879.73,-117.53"/>
</g>
<!-- 51_+_15_16 -->
<g id="node31" class="node">
<title>51_+_15_16</title>
<path fill="none" stroke="black" d="M639.47,-124C639.47,-124 609.47,-124 609.47,-124 603.47,-124 597.47,-118 597.47,-112 597.47,-112 597.47,-100 597.47,-100 597.47,-94 603.47,-88 609.47,-88 609.47,-88 639.47,-88 639.47,-88 645.47,-88 651.47,-94 651.47,-100 651.47,-100 651.47,-112 651.47,-112 651.47,-118 645.47,-124 639.47,-124"/>
<text text-anchor="middle" x="624.47" y="-102.3" font-family="Times,serif" font-size="14.00">+</text>
</g>
<!-- 51_+_15_16&#45;&gt;e_rep_15 -->
<g id="edge25" class="edge">
<title>51_+_15_16&#45;&gt;e_rep_15</title>
<path fill="none" stroke="black" d="M645.63,-87.96C650.3,-84.89 655.37,-82.03 660.47,-80 715.6,-58.06 745.35,-96.07 792.47,-60 796.91,-56.6 799.6,-51.01 801.2,-45.98"/>
<polygon fill="black" stroke="black" points="804.63,-46.7 803.34,-36.18 797.79,-45.21 804.63,-46.7"/>
</g>
<!-- 51_+_15_16&#45;&gt;e_rep_16 -->
<g id="edge26" class="edge">
<title>51_+_15_16&#45;&gt;e_rep_16</title>
<path fill="none" stroke="black" d="M602.28,-87.99C597.85,-85.06 593.13,-82.25 588.47,-80 539.7,-56.49 476.04,-42.33 450.17,-37.2"/>
<polygon fill="black" stroke="black" points="450.49,-33.69 440.01,-35.27 449.18,-40.57 450.49,-33.69"/>
</g>
<!-- 51_+_16_15 -->
<g id="node32" class="node">
<title>51_+_16_15</title>
<path fill="none" stroke="black" d="M567.47,-124C567.47,-124 537.47,-124 537.47,-124 531.47,-124 525.47,-118 525.47,-112 525.47,-112 525.47,-100 525.47,-100 525.47,-94 531.47,-88 537.47,-88 537.47,-88 567.47,-88 567.47,-88 573.47,-88 579.47,-94 579.47,-100 579.47,-100 579.47,-112 579.47,-112 579.47,-118 573.47,-124 567.47,-124"/>
<text text-anchor="middle" x="552.47" y="-102.3" font-family="Times,serif" font-size="14.00">+</text>
</g>
<!-- 51_+_16_15&#45;&gt;e_rep_15 -->
<g id="edge28" class="edge">
<title>51_+_16_15&#45;&gt;e_rep_15</title>
<path fill="none" stroke="black" d="M573.55,-87.75C578.23,-84.7 583.32,-81.89 588.47,-80 631.22,-64.28 755.58,-86.73 792.47,-60 797,-56.71 799.69,-51.14 801.28,-46.08"/>
<polygon fill="black" stroke="black" points="804.72,-46.71 803.35,-36.2 797.87,-45.27 804.72,-46.71"/>
</g>
<!-- 51_+_16_15&#45;&gt;e_rep_16 -->
<g id="edge27" class="edge">
<title>51_+_16_15&#45;&gt;e_rep_16</title>
<path fill="none" stroke="black" d="M526.1,-87.95C521.89,-85.27 517.57,-82.54 513.47,-80 490.31,-65.64 462.77,-49.3 448.36,-40.81"/>
<polygon fill="black" stroke="black" points="449.92,-37.67 439.53,-35.62 446.38,-43.71 449.92,-37.67"/>
</g>
<!-- 319_+_51_17 -->
<g id="node33" class="node">
<title>319_+_51_17</title>
<path fill="none" stroke="black" d="M1211.47,-196C1211.47,-196 1181.47,-196 1181.47,-196 1175.47,-196 1169.47,-190 1169.47,-184 1169.47,-184 1169.47,-172 1169.47,-172 1169.47,-166 1175.47,-160 1181.47,-160 1181.47,-160 1211.47,-160 1211.47,-160 1217.47,-160 1223.47,-166 1223.47,-172 1223.47,-172 1223.47,-184 1223.47,-184 1223.47,-190 1217.47,-196 1211.47,-196"/>
<text text-anchor="middle" x="1196.47" y="-174.3" font-family="Times,serif" font-size="14.00">+</text>
</g>
<!-- 319_+_51_17&#45;&gt;e_rep_17 -->
<g id="edge30" class="edge">
<title>319_+_51_17&#45;&gt;e_rep_17</title>
<path fill="none" stroke="black" d="M1217.58,-159.82C1222.25,-156.76 1227.34,-153.94 1232.47,-152 1268.25,-138.46 1378.03,-160.58 1403.47,-132 1418.83,-114.73 1417.49,-98.37 1403.47,-80 1384.46,-55.11 1284.75,-40.69 1250.24,-36.38"/>
<polygon fill="black" stroke="black" points="1250.41,-32.87 1240.06,-35.17 1249.58,-39.83 1250.41,-32.87"/>
</g>
<!-- 319_+_51_17&#45;&gt;e_rep_51 -->
<g id="edge29" class="edge">
<title>319_+_51_17&#45;&gt;e_rep_51</title>
<path fill="none" stroke="black" d="M1175.84,-159.79C1171.06,-156.65 1165.8,-153.8 1160.47,-152 1067.11,-120.44 812.4,-158.42 717.47,-132 703.83,-128.2 689.76,-119.77 680.83,-113.75"/>
<polygon fill="black" stroke="black" points="682.69,-110.78 672.52,-107.82 678.62,-116.48 682.69,-110.78"/>
</g>
<!-- 319_+_308_15 -->
<g id="node34" class="node">
<title>319_+_308_15</title>
<path fill="none" stroke="black" d="M1139.47,-196C1139.47,-196 1109.47,-196 1109.47,-196 1103.47,-196 1097.47,-190 1097.47,-184 1097.47,-184 1097.47,-172 1097.47,-172 1097.47,-166 1103.47,-160 1109.47,-160 1109.47,-160 1139.47,-160 1139.47,-160 1145.47,-160 1151.47,-166 1151.47,-172 1151.47,-172 1151.47,-184 1151.47,-184 1151.47,-190 1145.47,-196 1139.47,-196"/>
<text text-anchor="middle" x="1124.47" y="-174.3" font-family="Times,serif" font-size="14.00">+</text>
</g>
<!-- 319_+_308_15&#45;&gt;e_rep_15 -->
<g id="edge32" class="edge">
<title>319_+_308_15&#45;&gt;e_rep_15</title>
<path fill="none" stroke="black" d="M1132.25,-159.96C1140.72,-138.57 1150.66,-102.01 1131.47,-80 1089.15,-31.49 869.79,-33.42 815.59,-34.66"/>
<polygon fill="black" stroke="black" points="815.16,-31.17 805.26,-34.94 815.35,-38.17 815.16,-31.17"/>
</g>
<!-- e_rep_308 -->
<!-- 319_+_308_15&#45;&gt;e_rep_308 -->
<g id="edge31" class="edge">
<title>319_+_308_15&#45;&gt;e_rep_308</title>
<path fill="none" stroke="black" d="M1122.73,-159.7C1121.43,-146.63 1119.68,-129.11 1118.56,-117.93"/>
<polygon fill="black" stroke="black" points="1122.02,-117.41 1117.55,-107.81 1115.06,-118.11 1122.02,-117.41"/>
</g>
<!-- 319_+_318_16 -->
<g id="node36" class="node">
<title>319_+_318_16</title>
<path fill="none" stroke="black" d="M1283.47,-196C1283.47,-196 1253.47,-196 1253.47,-196 1247.47,-196 1241.47,-190 1241.47,-184 1241.47,-184 1241.47,-172 1241.47,-172 1241.47,-166 1247.47,-160 1253.47,-160 1253.47,-160 1283.47,-160 1283.47,-160 1289.47,-160 1295.47,-166 1295.47,-172 1295.47,-172 1295.47,-184 1295.47,-184 1295.47,-190 1289.47,-196 1283.47,-196"/>
<text text-anchor="middle" x="1268.47" y="-174.3" font-family="Times,serif" font-size="14.00">+</text>
</g>
<!-- 319_+_318_16&#45;&gt;e_rep_16 -->
<g id="edge34" class="edge">
<title>319_+_318_16&#45;&gt;e_rep_16</title>
<path fill="none" stroke="black" d="M1247.8,-159.91C1243.02,-156.76 1237.77,-153.88 1232.47,-152 1117.77,-111.42 1073.49,-174.4 959.47,-132 923.14,-118.49 925.61,-93.99 889.47,-80 878.87,-75.9 519.93,-42.54 450.15,-36.08"/>
<polygon fill="black" stroke="black" points="450.34,-32.58 440.06,-35.15 449.69,-39.55 450.34,-32.58"/>
</g>
<!-- 319_+_318_16&#45;&gt;e_rep_318 -->
<g id="edge33" class="edge">
<title>319_+_318_16&#45;&gt;e_rep_318</title>
<path fill="none" stroke="black" d="M1287.13,-159.79C1295.02,-151.86 1303.88,-141.99 1310.47,-132 1313.37,-127.59 1315.83,-122.29 1317.68,-117.7"/>
<polygon fill="black" stroke="black" points="1321.07,-118.61 1321.16,-108.01 1314.49,-116.25 1321.07,-118.61"/>
</g>
<!-- 318_+_15_17 -->
<g id="node37" class="node">
<title>318_+_15_17</title>
<path fill="none" stroke="black" d="M1289.47,-124C1289.47,-124 1259.47,-124 1259.47,-124 1253.47,-124 1247.47,-118 1247.47,-112 1247.47,-112 1247.47,-100 1247.47,-100 1247.47,-94 1253.47,-88 1259.47,-88 1259.47,-88 1289.47,-88 1289.47,-88 1295.47,-88 1301.47,-94 1301.47,-100 1301.47,-100 1301.47,-112 1301.47,-112 1301.47,-118 1295.47,-124 1289.47,-124"/>
<text text-anchor="middle" x="1274.47" y="-102.3" font-family="Times,serif" font-size="14.00">+</text>
</g>
<!-- 318_+_15_17&#45;&gt;e_rep_17 -->
<g id="edge36" class="edge">
<title>318_+_15_17&#45;&gt;e_rep_17</title>
<path fill="none" stroke="black" d="M1265.57,-87.7C1258.62,-74.19 1249.23,-55.92 1243.52,-44.83"/>
<polygon fill="black" stroke="black" points="1246.57,-43.1 1238.88,-35.81 1240.34,-46.3 1246.57,-43.1"/>
</g>
<!-- 318_+_15_17&#45;&gt;e_rep_15 -->
<g id="edge35" class="edge">
<title>318_+_15_17&#45;&gt;e_rep_15</title>
<path fill="none" stroke="black" d="M1253.37,-87.77C1248.7,-84.72 1243.6,-81.9 1238.47,-80 1157.4,-49.95 876.3,-37.75 815.23,-35.43"/>
<polygon fill="black" stroke="black" points="815.12,-31.92 805,-35.05 814.87,-38.91 815.12,-31.92"/>
</g>
<!-- 318_+_17_15 -->
<g id="node38" class="node">
<title>318_+_17_15</title>
<path fill="none" stroke="black" d="M1217.47,-124C1217.47,-124 1187.47,-124 1187.47,-124 1181.47,-124 1175.47,-118 1175.47,-112 1175.47,-112 1175.47,-100 1175.47,-100 1175.47,-94 1181.47,-88 1187.47,-88 1187.47,-88 1217.47,-88 1217.47,-88 1223.47,-88 1229.47,-94 1229.47,-100 1229.47,-100 1229.47,-112 1229.47,-112 1229.47,-118 1223.47,-124 1217.47,-124"/>
<text text-anchor="middle" x="1202.47" y="-102.3" font-family="Times,serif" font-size="14.00">+</text>
</g>
<!-- 318_+_17_15&#45;&gt;e_rep_17 -->
<g id="edge37" class="edge">
<title>318_+_17_15&#45;&gt;e_rep_17</title>
<path fill="none" stroke="black" d="M1212.58,-87.68C1217.29,-79.4 1222.86,-69.29 1227.47,-60 1229.81,-55.27 1232.2,-49.92 1234.15,-45.39"/>
<polygon fill="black" stroke="black" points="1237.46,-46.55 1238.08,-35.97 1231,-43.85 1237.46,-46.55"/>
</g>
<!-- 318_+_17_15&#45;&gt;e_rep_15 -->
<g id="edge38" class="edge">
<title>318_+_17_15&#45;&gt;e_rep_15</title>
<path fill="none" stroke="black" d="M1178.15,-87.89C1172.85,-84.83 1167.13,-81.98 1161.47,-80 1031.78,-34.66 861.55,-33.98 815.42,-34.71"/>
<polygon fill="black" stroke="black" points="815.2,-31.22 805.28,-34.94 815.35,-38.22 815.2,-31.22"/>
</g>
<!-- 332_+_16_14 -->
<g id="node39" class="node">
<title>332_+_16_14</title>
<path fill="none" stroke="black" d="M187.47,-124C187.47,-124 157.47,-124 157.47,-124 151.47,-124 145.47,-118 145.47,-112 145.47,-112 145.47,-100 145.47,-100 145.47,-94 151.47,-88 157.47,-88 157.47,-88 187.47,-88 187.47,-88 193.47,-88 199.47,-94 199.47,-100 199.47,-100 199.47,-112 199.47,-112 199.47,-118 193.47,-124 187.47,-124"/>
<text text-anchor="middle" x="172.47" y="-102.3" font-family="Times,serif" font-size="14.00">+</text>
</g>
<!-- 332_+_16_14&#45;&gt;e_rep_16 -->
<g id="edge39" class="edge">
<title>332_+_16_14&#45;&gt;e_rep_16</title>
<path fill="none" stroke="black" d="M193.16,-87.98C197.93,-84.83 203.17,-81.93 208.47,-80 254.39,-63.29 387.8,-88.54 427.47,-60 432.01,-56.73 434.7,-51.15 436.29,-46.1"/>
<polygon fill="black" stroke="black" points="439.73,-46.71 438.35,-36.2 432.88,-45.28 439.73,-46.71"/>
</g>
<!-- 332_+_16_14&#45;&gt;e_rep_14 -->
<g id="edge40" class="edge">
<title>332_+_16_14&#45;&gt;e_rep_14</title>
<path fill="none" stroke="black" d="M178.89,-87.7C183.85,-74.34 190.55,-56.32 194.68,-45.19"/>
<polygon fill="black" stroke="black" points="197.96,-46.4 198.17,-35.81 191.4,-43.96 197.96,-46.4"/>
</g>
<!-- 332_+_14_16 -->
<g id="node40" class="node">
<title>332_+_14_16</title>
<path fill="none" stroke="black" d="M115.47,-124C115.47,-124 85.47,-124 85.47,-124 79.47,-124 73.47,-118 73.47,-112 73.47,-112 73.47,-100 73.47,-100 73.47,-94 79.47,-88 85.47,-88 85.47,-88 115.47,-88 115.47,-88 121.47,-88 127.47,-94 127.47,-100 127.47,-100 127.47,-112 127.47,-112 127.47,-118 121.47,-124 115.47,-124"/>
<text text-anchor="middle" x="100.47" y="-102.3" font-family="Times,serif" font-size="14.00">+</text>
</g>
<!-- 332_+_14_16&#45;&gt;e_rep_16 -->
<g id="edge42" class="edge">
<title>332_+_14_16&#45;&gt;e_rep_16</title>
<path fill="none" stroke="black" d="M121.12,-87.89C125.9,-84.74 131.15,-81.87 136.47,-80 197.62,-58.52 374.43,-97.26 427.47,-60 432.13,-56.72 434.84,-51 436.4,-45.86"/>
<polygon fill="black" stroke="black" points="439.85,-46.48 438.38,-35.99 432.99,-45.11 439.85,-46.48"/>
</g>
<!-- 332_+_14_16&#45;&gt;e_rep_14 -->
<g id="edge41" class="edge">
<title>332_+_14_16&#45;&gt;e_rep_14</title>
<path fill="none" stroke="black" d="M123.59,-87.78C127.77,-85 132.17,-82.29 136.47,-80 157.94,-68.53 169.9,-76.86 187.47,-60 191.39,-56.23 194.01,-50.82 195.7,-45.99"/>
<polygon fill="black" stroke="black" points="199.14,-46.68 198.28,-36.12 192.36,-44.91 199.14,-46.68"/>
</g>
<!-- 309_+_332_17 -->
<g id="node41" class="node">
<title>309_+_332_17</title>
<path fill="none" stroke="black" d="M795.47,-196C795.47,-196 765.47,-196 765.47,-196 759.47,-196 753.47,-190 753.47,-184 753.47,-184 753.47,-172 753.47,-172 753.47,-166 759.47,-160 765.47,-160 765.47,-160 795.47,-160 795.47,-160 801.47,-160 807.47,-166 807.47,-172 807.47,-172 807.47,-184 807.47,-184 807.47,-190 801.47,-196 795.47,-196"/>
<text text-anchor="middle" x="780.47" y="-174.3" font-family="Times,serif" font-size="14.00">+</text>
</g>
<!-- 309_+_332_17&#45;&gt;e_rep_17 -->
<g id="edge44" class="edge">
<title>309_+_332_17&#45;&gt;e_rep_17</title>
<path fill="none" stroke="black" d="M801.08,-159.77C805.86,-156.63 811.12,-153.79 816.47,-152 871.19,-133.7 1295.45,-173.59 1335.47,-132 1351.49,-115.35 1347.9,-99.48 1335.47,-80 1316.29,-49.96 1271.33,-39.67 1250.04,-36.4"/>
<polygon fill="black" stroke="black" points="1250.33,-32.91 1239.97,-35.13 1249.46,-39.85 1250.33,-32.91"/>
</g>
<!-- 309_+_332_17&#45;&gt;e_rep_332 -->
<g id="edge43" class="edge">
<title>309_+_332_17&#45;&gt;e_rep_332</title>
<path fill="none" stroke="black" d="M759.85,-159.77C755.07,-156.63 749.8,-153.79 744.47,-152 690.8,-134.03 284.57,-160.14 235.47,-132 229.83,-128.77 225.87,-122.67 223.29,-117.3"/>
<polygon fill="black" stroke="black" points="226.51,-115.91 219.68,-107.81 219.97,-118.4 226.51,-115.91"/>
</g>
<!-- 309_+_308_14 -->
<g id="node42" class="node">
<title>309_+_308_14</title>
<path fill="none" stroke="black" d="M723.47,-196C723.47,-196 693.47,-196 693.47,-196 687.47,-196 681.47,-190 681.47,-184 681.47,-184 681.47,-172 681.47,-172 681.47,-166 687.47,-160 693.47,-160 693.47,-160 723.47,-160 723.47,-160 729.47,-160 735.47,-166 735.47,-172 735.47,-172 735.47,-184 735.47,-184 735.47,-190 729.47,-196 723.47,-196"/>
<text text-anchor="middle" x="708.47" y="-174.3" font-family="Times,serif" font-size="14.00">+</text>
</g>
<!-- 309_+_308_14&#45;&gt;e_rep_14 -->
<g id="edge46" class="edge">
<title>309_+_308_14&#45;&gt;e_rep_14</title>
<path fill="none" stroke="black" d="M688.24,-160C683.36,-156.76 677.95,-153.82 672.47,-152 640.22,-141.32 85.08,-156.4 61.47,-132 45.39,-115.39 46.46,-97.58 61.47,-80 98.28,-36.88 142.56,-94.62 187.47,-60 191.9,-56.58 194.59,-50.99 196.19,-45.97"/>
<polygon fill="black" stroke="black" points="199.61,-46.7 198.34,-36.18 192.77,-45.2 199.61,-46.7"/>
</g>
<!-- 309_+_308_14&#45;&gt;e_rep_308 -->
<g id="edge45" class="edge">
<title>309_+_308_14&#45;&gt;e_rep_308</title>
<path fill="none" stroke="black" d="M729.11,-159.83C733.89,-156.69 739.14,-153.83 744.47,-152 820.66,-125.81 1040.23,-177.87 1106.47,-132 1111.16,-128.75 1113.87,-123.03 1115.42,-117.89"/>
<polygon fill="black" stroke="black" points="1118.87,-118.48 1117.38,-107.99 1112.01,-117.12 1118.87,-118.48"/>
</g>
<!-- 309_+_313_16 -->
<g id="node43" class="node">
<title>309_+_313_16</title>
<path fill="none" stroke="black" d="M651.47,-196C651.47,-196 621.47,-196 621.47,-196 615.47,-196 609.47,-190 609.47,-184 609.47,-184 609.47,-172 609.47,-172 609.47,-166 615.47,-160 621.47,-160 621.47,-160 651.47,-160 651.47,-160 657.47,-160 663.47,-166 663.47,-172 663.47,-172 663.47,-184 663.47,-184 663.47,-190 657.47,-196 651.47,-196"/>
<text text-anchor="middle" x="636.47" y="-174.3" font-family="Times,serif" font-size="14.00">+</text>
</g>
<!-- 309_+_313_16&#45;&gt;e_rep_16 -->
<g id="edge48" class="edge">
<title>309_+_313_16&#45;&gt;e_rep_16</title>
<path fill="none" stroke="black" d="M613.91,-159.93C608.75,-156.78 603.11,-153.89 597.47,-152 543.37,-133.83 380.21,-173.89 341.47,-132 325.77,-115.03 327.09,-98.1 341.47,-80 365.87,-49.27 397.26,-85.05 427.47,-60 431.65,-56.53 434.3,-51.14 435.94,-46.26"/>
<polygon fill="black" stroke="black" points="439.43,-46.7 438.32,-36.16 432.62,-45.09 439.43,-46.7"/>
</g>
<!-- 309_+_313_16&#45;&gt;e_rep_313 -->
<g id="edge47" class="edge">
<title>309_+_313_16&#45;&gt;e_rep_313</title>
<path fill="none" stroke="black" d="M657.56,-159.77C662.23,-156.72 667.33,-153.91 672.47,-152 712.68,-137.07 829.8,-157.27 864.47,-132 868.99,-128.7 871.68,-123.12 873.27,-118.07"/>
<polygon fill="black" stroke="black" points="876.71,-118.71 875.35,-108.2 869.86,-117.26 876.71,-118.71"/>
</g>
<!-- 313_+_17_14 -->
<g id="node44" class="node">
<title>313_+_17_14</title>
<path fill="none" stroke="black" d="M843.47,-124C843.47,-124 813.47,-124 813.47,-124 807.47,-124 801.47,-118 801.47,-112 801.47,-112 801.47,-100 801.47,-100 801.47,-94 807.47,-88 813.47,-88 813.47,-88 843.47,-88 843.47,-88 849.47,-88 855.47,-94 855.47,-100 855.47,-100 855.47,-112 855.47,-112 855.47,-118 849.47,-124 843.47,-124"/>
<text text-anchor="middle" x="828.47" y="-102.3" font-family="Times,serif" font-size="14.00">+</text>
</g>
<!-- 313_+_17_14&#45;&gt;e_rep_17 -->
<g id="edge49" class="edge">
<title>313_+_17_14&#45;&gt;e_rep_17</title>
<path fill="none" stroke="black" d="M849.11,-87.83C853.89,-84.69 859.14,-81.83 864.47,-80 940.87,-53.74 1161.05,-105.99 1227.47,-60 1232.16,-56.75 1234.87,-51.04 1236.42,-45.89"/>
<polygon fill="black" stroke="black" points="1239.87,-46.48 1238.38,-35.99 1233.01,-45.12 1239.87,-46.48"/>
</g>
<!-- 313_+_17_14&#45;&gt;e_rep_14 -->
<g id="edge50" class="edge">
<title>313_+_17_14&#45;&gt;e_rep_14</title>
<path fill="none" stroke="black" d="M807.84,-87.8C803.06,-84.65 797.8,-81.8 792.47,-80 699.75,-48.63 449.82,-70.08 352.47,-60 298.82,-54.44 235.45,-42.41 209.95,-37.33"/>
<polygon fill="black" stroke="black" points="210.47,-33.87 199.97,-35.31 209.08,-40.73 210.47,-33.87"/>
</g>
<!-- 313_+_14_17 -->
<g id="node45" class="node">
<title>313_+_14_17</title>
<path fill="none" stroke="black" d="M771.47,-124C771.47,-124 741.47,-124 741.47,-124 735.47,-124 729.47,-118 729.47,-112 729.47,-112 729.47,-100 729.47,-100 729.47,-94 735.47,-88 741.47,-88 741.47,-88 771.47,-88 771.47,-88 777.47,-88 783.47,-94 783.47,-100 783.47,-100 783.47,-112 783.47,-112 783.47,-118 777.47,-124 771.47,-124"/>
<text text-anchor="middle" x="756.47" y="-102.3" font-family="Times,serif" font-size="14.00">+</text>
</g>
<!-- 313_+_14_17&#45;&gt;e_rep_17 -->
<g id="edge52" class="edge">
<title>313_+_14_17&#45;&gt;e_rep_17</title>
<path fill="none" stroke="black" d="M777.09,-87.8C781.87,-84.66 787.13,-81.81 792.47,-80 838.29,-64.48 1187.56,-87.36 1227.47,-60 1232.17,-56.77 1234.88,-51.06 1236.44,-45.91"/>
<polygon fill="black" stroke="black" points="1239.89,-46.48 1238.38,-35.99 1233.02,-45.13 1239.89,-46.48"/>
</g>
<!-- 313_+_14_17&#45;&gt;e_rep_14 -->
<g id="edge51" class="edge">
<title>313_+_14_17&#45;&gt;e_rep_14</title>
<path fill="none" stroke="black" d="M729.32,-93.44C716.3,-88.42 700.32,-83 685.47,-80 540.13,-50.65 499.83,-76.34 352.47,-60 298.86,-54.05 235.47,-42.23 209.95,-37.27"/>
<polygon fill="black" stroke="black" points="210.46,-33.81 199.97,-35.3 209.11,-40.67 210.46,-33.81"/>
</g>
<!-- 308_+_17_16 -->
<g id="node46" class="node">
<title>308_+_17_16</title>
<path fill="none" stroke="black" d="M1085.47,-124C1085.47,-124 1055.47,-124 1055.47,-124 1049.47,-124 1043.47,-118 1043.47,-112 1043.47,-112 1043.47,-100 1043.47,-100 1043.47,-94 1049.47,-88 1055.47,-88 1055.47,-88 1085.47,-88 1085.47,-88 1091.47,-88 1097.47,-94 1097.47,-100 1097.47,-100 1097.47,-112 1097.47,-112 1097.47,-118 1091.47,-124 1085.47,-124"/>
<text text-anchor="middle" x="1070.47" y="-102.3" font-family="Times,serif" font-size="14.00">+</text>
</g>
<!-- 308_+_17_16&#45;&gt;e_rep_17 -->
<g id="edge53" class="edge">
<title>308_+_17_16&#45;&gt;e_rep_17</title>
<path fill="none" stroke="black" d="M1092.05,-87.76C1096.6,-84.78 1101.53,-82 1106.47,-80 1156.97,-59.51 1184.41,-93.42 1227.47,-60 1231.89,-56.57 1234.57,-50.98 1236.18,-45.96"/>
<polygon fill="black" stroke="black" points="1239.6,-46.7 1238.34,-36.18 1232.76,-45.19 1239.6,-46.7"/>
</g>
<!-- 308_+_17_16&#45;&gt;e_rep_16 -->
<g id="edge54" class="edge">
<title>308_+_17_16&#45;&gt;e_rep_16</title>
<path fill="none" stroke="black" d="M1049.81,-87.87C1045.03,-84.72 1039.78,-81.85 1034.47,-80 967.8,-56.79 787.84,-65.37 717.47,-60 613.82,-52.09 488.75,-39.96 450.29,-36.17"/>
<polygon fill="black" stroke="black" points="450.53,-32.68 440.23,-35.18 449.84,-39.64 450.53,-32.68"/>
</g>
<!-- 308_+_16_17 -->
<g id="node47" class="node">
<title>308_+_16_17</title>
<path fill="none" stroke="black" d="M1013.47,-124C1013.47,-124 983.47,-124 983.47,-124 977.47,-124 971.47,-118 971.47,-112 971.47,-112 971.47,-100 971.47,-100 971.47,-94 977.47,-88 983.47,-88 983.47,-88 1013.47,-88 1013.47,-88 1019.47,-88 1025.47,-94 1025.47,-100 1025.47,-100 1025.47,-112 1025.47,-112 1025.47,-118 1019.47,-124 1013.47,-124"/>
<text text-anchor="middle" x="998.47" y="-102.3" font-family="Times,serif" font-size="14.00">+</text>
</g>
<!-- 308_+_16_17&#45;&gt;e_rep_17 -->
<g id="edge56" class="edge">
<title>308_+_16_17&#45;&gt;e_rep_17</title>
<path fill="none" stroke="black" d="M1019.56,-87.77C1024.23,-84.72 1029.33,-81.9 1034.47,-80 1074.89,-65.01 1192.62,-85.4 1227.47,-60 1231.99,-56.7 1234.68,-51.12 1236.27,-46.07"/>
<polygon fill="black" stroke="black" points="1239.71,-46.71 1238.35,-36.2 1232.86,-45.26 1239.71,-46.71"/>
</g>
<!-- 308_+_16_17&#45;&gt;e_rep_16 -->
<g id="edge55" class="edge">
<title>308_+_16_17&#45;&gt;e_rep_16</title>
<path fill="none" stroke="black" d="M974.66,-87.96C969.23,-84.81 963.33,-81.91 957.47,-80 855.71,-46.8 824.1,-69.22 717.47,-60 613.9,-51.04 488.77,-39.62 450.29,-36.09"/>
<polygon fill="black" stroke="black" points="450.51,-32.59 440.24,-35.16 449.87,-39.56 450.51,-32.59"/>
</g>
</g>
</svg>
